<svg width="420" height="300" fill="none" xmlns="http://www.w3.org/2000/svg"><path d="M205.376 86.32c-1.707 0-3.296-.277-4.768-.832a11.901 11.901 0 0 1-3.808-2.4 11.233 11.233 0 0 1-2.496-3.68c-.597-1.408-.896-2.944-.896-4.608 0-1.664.299-3.2.896-4.608a10.668 10.668 0 0 1 2.528-3.648 11.21 11.21 0 0 1 3.808-2.4c1.451-.576 3.04-.864 4.768-.864 1.835 0 3.509.32 5.024.96a9.8 9.8 0 0 1 3.84 2.784l-2.688 2.528c-.811-.875-1.717-1.525-2.72-1.952-1.003-.448-2.091-.672-3.264-.672-1.173 0-2.251.192-3.232.576a7.69 7.69 0 0 0-2.528 1.632 7.748 7.748 0 0 0-1.664 2.496c-.384.96-.576 2.016-.576 3.168 0 1.152.192 2.208.576 3.168.405.96.96 1.792 1.664 2.496a7.69 7.69 0 0 0 2.528 1.632c.981.384 2.059.576 3.232.576s2.261-.213 3.264-.64c1.003-.448 1.909-1.12 2.72-2.016l2.688 2.56a10.242 10.242 0 0 1-3.84 2.784c-1.515.64-3.2.96-5.056.96Zm12.882-.32V63.6h9.216c1.984 0 3.68.32 5.088.96 1.429.64 2.528 1.557 3.296 2.752.768 1.195 1.152 2.613 1.152 4.256 0 1.643-.384 3.061-1.152 4.256-.768 1.173-1.867 2.08-3.296 2.72-1.408.619-3.104.928-5.088.928h-6.912l1.856-1.888V86h-4.16Zm14.656 0-5.664-8.128h4.448L237.394 86h-4.48Zm-10.496-7.968-1.856-1.984h6.72c1.835 0 3.211-.395 4.128-1.184.939-.79 1.408-1.888 1.408-3.296 0-1.43-.469-2.528-1.408-3.296-.917-.768-2.293-1.152-4.128-1.152h-6.72l1.856-2.048v12.96Zm23.086-5.12h11.136v3.424h-11.136v-3.424Zm.32 9.6h12.64V86h-16.8V63.6h16.352v3.488h-12.192v15.424ZM259.934 86l10.08-22.4h4.096L284.222 86h-4.352l-8.672-20.192h1.664L264.222 86h-4.288Zm4.64-5.184 1.12-3.264h12.096l1.12 3.264h-14.336ZM290.49 86V67.12h-7.424V63.6h19.008v3.52h-7.424V86h-4.16Zm18.546-13.088h11.136v3.424h-11.136v-3.424Zm.32 9.6h12.64V86h-16.8V63.6h16.352v3.488h-12.192v15.424Zm-110.54 111.392h11.168v3.52h-11.168v-3.52Zm.352 12.096h-4.16v-22.4h16.352v3.488h-12.192V206Zm26.461.32c-1.749 0-3.36-.288-4.832-.864-1.472-.576-2.752-1.376-3.84-2.4a11.086 11.086 0 0 1-2.528-3.648c-.597-1.408-.896-2.944-.896-4.608 0-1.664.299-3.189.896-4.576a10.668 10.668 0 0 1 2.528-3.648 11.557 11.557 0 0 1 3.84-2.432c1.472-.576 3.072-.864 4.8-.864 1.749 0 3.349.288 4.8.864a11.557 11.557 0 0 1 3.84 2.432 10.668 10.668 0 0 1 2.528 3.648c.597 1.387.896 2.912.896 4.576 0 1.664-.299 3.2-.896 4.608a10.668 10.668 0 0 1-2.528 3.648c-1.088 1.024-2.368 1.824-3.84 2.4-1.451.576-3.04.864-4.768.864Zm-.032-3.648c1.131 0 2.176-.192 3.136-.576a7.343 7.343 0 0 0 2.496-1.632 7.773 7.773 0 0 0 1.632-2.496c.405-.96.608-2.016.608-3.168 0-1.152-.203-2.197-.608-3.136a7.343 7.343 0 0 0-1.632-2.496 7.125 7.125 0 0 0-2.496-1.664c-.96-.384-2.005-.576-3.136-.576-1.131 0-2.176.192-3.136.576a7.53 7.53 0 0 0-2.496 1.664 7.748 7.748 0 0 0-1.664 2.496c-.384.939-.576 1.984-.576 3.136 0 1.131.192 2.176.576 3.136.405.96.96 1.803 1.664 2.528a7.343 7.343 0 0 0 2.496 1.632c.96.384 2.005.576 3.136.576ZM242.071 206v-22.4h4.16v18.88h11.712V206h-15.872Zm19.156 0v-22.4h9.792c2.432 0 4.565.469 6.4 1.408 1.834.939 3.264 2.24 4.288 3.904 1.024 1.664 1.536 3.627 1.536 5.888 0 2.24-.512 4.203-1.536 5.888-1.024 1.664-2.454 2.965-4.288 3.904-1.835.939-3.968 1.408-6.4 1.408h-9.792Zm4.16-3.52h5.44c1.685 0 3.136-.32 4.352-.96 1.237-.64 2.186-1.536 2.848-2.688.682-1.152 1.024-2.496 1.024-4.032 0-1.557-.342-2.901-1.024-4.032-.662-1.152-1.611-2.048-2.848-2.688-1.216-.64-2.667-.96-4.352-.96h-5.44v15.36Zm26.117-9.568h11.136v3.424h-11.136v-3.424Zm.32 9.6h12.64V206h-16.8v-22.4h16.352v3.488h-12.192v15.424ZM309.102 206v-22.4h9.216c1.984 0 3.68.32 5.088.96 1.429.64 2.528 1.557 3.296 2.752.768 1.195 1.152 2.613 1.152 4.256 0 1.643-.384 3.061-1.152 4.256-.768 1.173-1.867 2.08-3.296 2.72-1.408.619-3.104.928-5.088.928h-6.912l1.856-1.888V206h-4.16Zm14.656 0-5.664-8.128h4.448l5.696 8.128h-4.48Zm-10.496-7.968-1.856-1.984h6.72c1.834 0 3.21-.395 4.128-1.184.938-.789 1.408-1.888 1.408-3.296 0-1.429-.47-2.528-1.408-3.296-.918-.768-2.294-1.152-4.128-1.152h-6.72l1.856-2.048v12.96Z" fill="#381B00"/><ellipse cx="80.191" cy="135" rx="80.191" ry="80" fill="#DE9368"/><path d="M78.893 58.243a1.5 1.5 0 0 1 2.596 0l40.804 70.506a1.5 1.5 0 0 1-1.299 2.251H39.388a1.5 1.5 0 0 1-1.299-2.251l40.804-70.506Zm-25.06 75a1.5 1.5 0 0 1 2.596 0l19.102 33.006a1.5 1.5 0 0 1-1.299 2.251H36.03a1.5 1.5 0 0 1-1.298-2.251l19.101-33.006Zm-12.53 37.5a1.5 1.5 0 0 1 2.597 0l8.25 14.256a1.5 1.5 0 0 1-1.299 2.251h-16.5a1.5 1.5 0 0 1-1.298-2.251l8.25-14.256Zm-6.265 18.75a1.5 1.5 0 0 1 2.597 0l2.824 4.881a1.5 1.5 0 0 1-1.298 2.251h-5.649a1.5 1.5 0 0 1-1.298-2.251l2.824-4.881Zm62.649 0a1.5 1.5 0 0 1 2.597 0l2.824 4.881a1.5 1.5 0 0 1-1.298 2.251h-5.649a1.5 1.5 0 0 1-1.298-2.251l2.824-4.881Zm12.53 0a1.5 1.5 0 0 1 2.597 0l2.824 4.881a1.5 1.5 0 0 1-1.298 2.251h-5.649a1.5 1.5 0 0 1-1.298-2.251l2.824-4.881Zm12.53 0a1.5 1.5 0 0 1 2.597 0l2.824 4.881a1.5 1.5 0 0 1-1.298 2.251h-5.649a1.5 1.5 0 0 1-1.298-2.251l2.824-4.881Zm-37.589 0a1.5 1.5 0 0 1 2.596 0l2.825 4.881a1.5 1.5 0 0 1-1.299 2.251h-5.649a1.5 1.5 0 0 1-1.298-2.251l2.825-4.881Zm-12.53 0a1.5 1.5 0 0 1 2.596 0l2.825 4.881a1.5 1.5 0 0 1-1.299 2.251h-5.648a1.5 1.5 0 0 1-1.299-2.251l2.825-4.881Zm-12.53 0a1.5 1.5 0 0 1 2.596 0l2.825 4.881a1.5 1.5 0 0 1-1.298 2.251h-5.65a1.5 1.5 0 0 1-1.297-2.251l2.824-4.881Zm-12.53 0a1.5 1.5 0 0 1 2.597 0l2.824 4.881a1.5 1.5 0 0 1-1.298 2.251h-5.649a1.5 1.5 0 0 1-1.298-2.251l2.824-4.881Zm68.914-18.75a1.5 1.5 0 0 1 2.597 0l8.25 14.256a1.5 1.5 0 0 1-1.299 2.251h-16.5a1.5 1.5 0 0 1-1.298-2.251l8.25-14.256Zm-25.06 0a1.5 1.5 0 0 1 2.597 0l8.25 14.256a1.5 1.5 0 0 1-1.298 2.251h-16.5a1.5 1.5 0 0 1-1.299-2.251l8.25-14.256Zm-25.059 0a1.5 1.5 0 0 1 2.596 0l8.25 14.256a1.5 1.5 0 0 1-1.298 2.251h-16.5a1.5 1.5 0 0 1-1.298-2.251l8.25-14.256Zm37.589-37.5a1.5 1.5 0 0 1 2.597 0l19.101 33.006a1.5 1.5 0 0 1-1.298 2.251H86.149a1.5 1.5 0 0 1-1.298-2.251l19.101-33.006Z" fill="#381B00"/><path d="M193.016 154v-44.8H212.6c4.864 0 9.131.939 12.8 2.816 3.669 1.877 6.528 4.48 8.576 7.808 2.048 3.328 3.072 7.253 3.072 11.776 0 4.48-1.024 8.405-3.072 11.776-2.048 3.328-4.907 5.931-8.576 7.808-3.669 1.877-7.936 2.816-12.8 2.816h-19.584Zm8.32-7.04h10.88c3.371 0 6.272-.64 8.704-1.92 2.475-1.28 4.373-3.072 5.696-5.376 1.365-2.304 2.048-4.992 2.048-8.064 0-3.115-.683-5.803-2.048-8.064-1.323-2.304-3.221-4.096-5.696-5.376-2.432-1.28-5.333-1.92-8.704-1.92h-10.88v30.72Zm58.443 7.68c-3.499 0-6.848-.491-10.048-1.472-3.2-1.024-5.739-2.325-7.616-3.904l2.88-6.464c1.792 1.408 4.011 2.581 6.656 3.52a24.127 24.127 0 0 0 8.128 1.408c2.347 0 4.245-.256 5.696-.768 1.451-.512 2.517-1.195 3.2-2.048a4.84 4.84 0 0 0 1.024-3.008c0-1.365-.491-2.453-1.472-3.264-.981-.853-2.261-1.515-3.84-1.984-1.536-.512-3.264-.981-5.184-1.408a101.957 101.957 0 0 1-5.696-1.472 27.134 27.134 0 0 1-5.184-2.24 11.622 11.622 0 0 1-3.776-3.712c-.981-1.536-1.472-3.499-1.472-5.888 0-2.432.64-4.651 1.92-6.656 1.323-2.048 3.307-3.669 5.952-4.864 2.688-1.237 6.08-1.856 10.176-1.856 2.688 0 5.355.341 8 1.024 2.645.683 4.949 1.664 6.912 2.944l-2.624 6.464c-2.005-1.195-4.075-2.069-6.208-2.624-2.133-.597-4.181-.896-6.144-.896-2.304 0-4.181.277-5.632.832-1.408.555-2.453 1.28-3.136 2.176-.64.896-.96 1.92-.96 3.072 0 1.365.469 2.475 1.408 3.328.981.811 2.24 1.451 3.776 1.92 1.579.469 3.328.939 5.248 1.408 1.92.427 3.819.917 5.696 1.472 1.92.555 3.648 1.28 5.184 2.176a10.323 10.323 0 0 1 3.776 3.648c.981 1.536 1.472 3.477 1.472 5.824 0 2.389-.661 4.608-1.984 6.656-1.28 2.005-3.264 3.627-5.952 4.864-2.688 1.195-6.08 1.792-10.176 1.792Zm20.026-.64 20.16-44.8h8.192l20.224 44.8h-8.704l-17.344-40.384h3.328L288.381 154h-8.576Zm9.28-10.368 2.24-6.528h24.192l2.24 6.528h-28.672Z" fill="#DE9368"/><path d="m1.028 275 4.48-9.8H6.53l4.48 9.8H9.918l-4.116-9.198h.42L2.106 275H1.028Zm1.764-2.618.308-.84h5.698l.308.84H2.792ZM16.295 275v-9.8h3.668c.83 0 1.545.135 2.142.406.598.261 1.055.644 1.372 1.148.327.495.49 1.097.49 1.806 0 .691-.163 1.288-.49 1.792-.317.495-.774.877-1.372 1.148-.597.261-1.311.392-2.142.392H16.87l.462-.476V275h-1.036Zm6.692 0-2.52-3.556h1.12L24.121 275h-1.134Zm-5.656-3.5-.462-.49h3.066c.98 0 1.722-.215 2.226-.644.514-.429.77-1.031.77-1.806 0-.784-.256-1.391-.77-1.82-.504-.429-1.246-.644-2.226-.644H16.87l.462-.49v5.894Zm11.91 3.57c-.626 0-1.172-.117-1.639-.35a2.518 2.518 0 0 1-1.092-1.05c-.252-.467-.378-1.05-.378-1.75v-4.27h.994v4.158c0 .784.192 1.377.574 1.778.392.392.938.588 1.638.588.514 0 .957-.103 1.33-.308.383-.215.672-.523.868-.924.206-.401.308-.882.308-1.442v-3.85h.994V275h-.952v-2.016l.154.364a2.746 2.746 0 0 1-1.092 1.274c-.485.299-1.054.448-1.708.448Zm8.342 0a5.775 5.775 0 0 1-1.722-.252c-.542-.177-.966-.397-1.274-.658l.448-.784c.298.224.681.42 1.148.588a4.52 4.52 0 0 0 1.47.238c.7 0 1.204-.107 1.512-.322.308-.224.462-.518.462-.882 0-.271-.089-.481-.266-.63a1.534 1.534 0 0 0-.672-.35 7.398 7.398 0 0 0-.938-.21 19.657 19.657 0 0 1-1.036-.196 4.012 4.012 0 0 1-.924-.322 1.94 1.94 0 0 1-.686-.602c-.168-.252-.252-.588-.252-1.008 0-.401.112-.761.336-1.078.224-.317.55-.565.98-.742.438-.187.97-.28 1.596-.28.476 0 .952.065 1.428.196.476.121.868.285 1.176.49l-.434.798a3.223 3.223 0 0 0-1.05-.476 4.195 4.195 0 0 0-1.12-.154c-.663 0-1.153.117-1.47.35-.308.224-.462.513-.462.868 0 .28.084.499.252.658.177.159.406.285.686.378.289.084.602.154.938.21.345.056.686.126 1.022.21.345.075.658.182.938.322.289.131.518.322.686.574.177.243.266.565.266.966 0 .429-.122.803-.364 1.12-.234.308-.579.551-1.036.728-.448.168-.994.252-1.638.252Zm7.186 0c-.691 0-1.223-.187-1.596-.56-.374-.373-.56-.901-.56-1.582v-6.902h.994v6.846c0 .429.107.761.322.994.224.233.54.35.952.35.438 0 .802-.126 1.092-.378l.35.714a1.835 1.835 0 0 1-.714.392 2.82 2.82 0 0 1-.84.126Zm-3.472-6.594v-.826h4.55v.826h-4.55Zm6.152 3.164v-.868h3.668v.868H47.45Zm9.686 3.43a3.477 3.477 0 0 1-1.736-.434 3.185 3.185 0 0 1-1.218-1.288c-.299-.56-.448-1.237-.448-2.03 0-.803.15-1.479.448-2.03.308-.56.719-.985 1.232-1.274a3.449 3.449 0 0 1 1.722-.434c.7 0 1.325.159 1.876.476.56.308.999.742 1.316 1.302.317.56.476 1.213.476 1.96 0 .737-.159 1.391-.476 1.96-.317.56-.756.999-1.316 1.316-.55.317-1.176.476-1.876.476Zm-3.794-.07v-10.388h.994v5.208l-.14 1.484.098 1.484V275h-.952Zm3.724-.812c.523 0 .99-.117 1.4-.35.41-.243.737-.579.98-1.008.243-.439.364-.943.364-1.512 0-.579-.121-1.083-.364-1.512a2.573 2.573 0 0 0-.98-.994 2.697 2.697 0 0 0-1.4-.364 2.77 2.77 0 0 0-1.414.364 2.58 2.58 0 0 0-.98.994c-.233.429-.35.933-.35 1.512 0 .569.117 1.073.35 1.512.243.429.57.765.98 1.008.42.233.891.35 1.414.35Zm10.33.812v-1.624l-.043-.266v-2.716c0-.625-.177-1.106-.532-1.442-.345-.336-.863-.504-1.554-.504a3.88 3.88 0 0 0-1.358.238 3.48 3.48 0 0 0-1.092.63l-.448-.742a3.9 3.9 0 0 1 1.344-.728 5.116 5.116 0 0 1 1.652-.266c.952 0 1.685.238 2.198.714.523.467.784 1.181.784 2.142V275h-.952Zm-2.535.07c-.55 0-1.031-.089-1.442-.266-.401-.187-.709-.439-.924-.756a1.995 1.995 0 0 1-.322-1.12c0-.383.089-.728.266-1.036.187-.317.486-.569.896-.756.42-.196.98-.294 1.68-.294h2.534v.742h-2.506c-.709 0-1.204.126-1.484.378a1.23 1.23 0 0 0-.406.938c0 .42.164.756.49 1.008.327.252.784.378 1.372.378.56 0 1.041-.126 1.442-.378.411-.261.71-.635.896-1.12l.224.686a2.325 2.325 0 0 1-.98 1.162c-.457.289-1.036.434-1.736.434Zm8.16 0c-.606 0-1.18-.084-1.722-.252-.541-.177-.966-.397-1.274-.658l.448-.784c.299.224.681.42 1.148.588a4.53 4.53 0 0 0 1.47.238c.7 0 1.204-.107 1.512-.322.308-.224.462-.518.462-.882 0-.271-.088-.481-.266-.63a1.534 1.534 0 0 0-.672-.35 7.398 7.398 0 0 0-.938-.21c-.345-.056-.69-.121-1.036-.196a4.012 4.012 0 0 1-.924-.322 1.94 1.94 0 0 1-.686-.602c-.168-.252-.252-.588-.252-1.008 0-.401.112-.761.336-1.078.224-.317.55-.565.98-.742.439-.187.97-.28 1.596-.28.476 0 .952.065 1.428.196.476.121.868.285 1.176.49l-.434.798a3.223 3.223 0 0 0-1.05-.476 4.195 4.195 0 0 0-1.12-.154c-.662 0-1.153.117-1.47.35-.308.224-.462.513-.462.868 0 .28.084.499.252.658.177.159.406.285.686.378.29.084.602.154.938.21.346.056.686.126 1.022.21.345.075.658.182.938.322.29.131.518.322.686.574.177.243.266.565.266.966 0 .429-.121.803-.364 1.12-.233.308-.579.551-1.036.728-.448.168-.994.252-1.638.252Zm7.984 0c-.765 0-1.437-.159-2.016-.476a3.578 3.578 0 0 1-1.358-1.33c-.327-.569-.49-1.218-.49-1.946s.154-1.372.462-1.932c.317-.56.747-.999 1.288-1.316a3.55 3.55 0 0 1 1.848-.49c.69 0 1.302.159 1.834.476a3.27 3.27 0 0 1 1.274 1.316c.308.56.462 1.209.462 1.946a.943.943 0 0 1-.014.154v.154h-6.398v-.742h5.866l-.392.294c0-.532-.117-1.003-.35-1.414a2.46 2.46 0 0 0-.924-.98c-.392-.233-.845-.35-1.358-.35-.504 0-.957.117-1.358.35-.401.233-.714.56-.938.98-.224.42-.336.901-.336 1.442v.154c0 .56.121 1.055.364 1.484.252.42.597.751 1.036.994.448.233.957.35 1.526.35.448 0 .863-.079 1.246-.238a2.592 2.592 0 0 0 1.008-.728l.56.644a3.14 3.14 0 0 1-1.232.896 4.097 4.097 0 0 1-1.61.308Zm8.253 0c-.7 0-1.33-.159-1.89-.476a3.455 3.455 0 0 1-1.302-1.316c-.317-.569-.476-1.223-.476-1.96 0-.747.159-1.4.476-1.96.318-.56.752-.994 1.302-1.302a3.77 3.77 0 0 1 1.89-.476c.644 0 1.218.145 1.722.434.514.289.92.714 1.218 1.274.308.551.462 1.227.462 2.03 0 .793-.149 1.47-.448 2.03-.298.56-.704.989-1.218 1.288-.504.289-1.082.434-1.736.434Zm.07-.882c.523 0 .99-.117 1.4-.35a2.55 2.55 0 0 0 .98-1.008c.243-.439.364-.943.364-1.512 0-.579-.121-1.083-.364-1.512a2.451 2.451 0 0 0-.98-.994 2.696 2.696 0 0 0-1.4-.364 2.67 2.67 0 0 0-1.386.364 2.58 2.58 0 0 0-.98.994c-.242.429-.364.933-.364 1.512 0 .569.122 1.073.364 1.512.243.429.57.765.98 1.008.411.233.873.35 1.386.35ZM92.1 275v-2.212l.098-1.484-.14-1.484v-5.208h.994V275H92.1Zm11.851.084a5.592 5.592 0 0 1-2.044-.364 4.91 4.91 0 0 1-1.624-1.05 4.898 4.898 0 0 1-1.078-1.582 5.132 5.132 0 0 1-.378-1.988c0-.719.126-1.381.378-1.988a4.898 4.898 0 0 1 1.078-1.582 4.887 4.887 0 0 1 1.638-1.036 5.415 5.415 0 0 1 2.044-.378c.709 0 1.376.121 2.002.364a3.96 3.96 0 0 1 1.582 1.064l-.658.658a3.567 3.567 0 0 0-1.33-.882 4.326 4.326 0 0 0-1.568-.28c-.588 0-1.134.103-1.638.308a3.774 3.774 0 0 0-1.316.854 3.98 3.98 0 0 0-.882 1.288 4.084 4.084 0 0 0-.308 1.61c0 .588.102 1.129.308 1.624.214.485.508.915.882 1.288.373.364.812.649 1.316.854a4.48 4.48 0 0 0 1.638.294c.56 0 1.082-.093 1.568-.28a3.734 3.734 0 0 0 1.33-.896l.658.658c-.43.476-.957.835-1.582 1.078a5.522 5.522 0 0 1-2.016.364Zm5.806-.084v-9.8h1.036v8.904h5.488V275h-6.524Zm8.244 0v-9.8h1.036v9.8H118Zm10.003.07c-.691 0-1.223-.187-1.596-.56-.373-.373-.56-.901-.56-1.582v-6.902h.994v6.846c0 .429.107.761.322.994.224.233.541.35.952.35.439 0 .803-.126 1.092-.378l.35.714a1.835 1.835 0 0 1-.714.392 2.82 2.82 0 0 1-.84.126Zm-3.472-6.594v-.826h4.55v.826h-4.55Zm9.572 6.594c-.71 0-1.349-.159-1.918-.476a3.633 3.633 0 0 1-1.33-1.33c-.327-.569-.49-1.218-.49-1.946 0-.737.163-1.386.49-1.946.326-.56.77-.999 1.33-1.316.56-.317 1.199-.476 1.918-.476.728 0 1.372.159 1.932.476a3.406 3.406 0 0 1 1.33 1.316c.326.56.49 1.209.49 1.946 0 .728-.164 1.377-.49 1.946a3.51 3.51 0 0 1-1.33 1.33c-.57.317-1.214.476-1.932.476Zm0-.882c.532 0 1.003-.117 1.414-.35.41-.243.732-.579.966-1.008.242-.439.364-.943.364-1.512 0-.579-.122-1.083-.364-1.512a2.486 2.486 0 0 0-.966-.994 2.699 2.699 0 0 0-1.4-.364c-.523 0-.99.121-1.4.364a2.566 2.566 0 0 0-.98.994c-.243.429-.364.933-.364 1.512 0 .569.121 1.073.364 1.512.242.429.569.765.98 1.008.41.233.872.35 1.386.35Zm12.371.882c-.7 0-1.33-.159-1.89-.476a3.45 3.45 0 0 1-1.302-1.316c-.317-.56-.476-1.213-.476-1.96 0-.737.159-1.386.476-1.946a3.33 3.33 0 0 1 1.302-1.316 3.77 3.77 0 0 1 1.89-.476c.653 0 1.232.145 1.736.434.513.289.919.714 1.218 1.274.299.551.448 1.227.448 2.03 0 .803-.154 1.484-.462 2.044a3.21 3.21 0 0 1-1.218 1.274c-.504.289-1.078.434-1.722.434Zm.07-.882c.523 0 .989-.117 1.4-.35.42-.243.747-.579.98-1.008.243-.439.364-.943.364-1.512 0-.569-.121-1.069-.364-1.498a2.547 2.547 0 0 0-.98-1.008 2.696 2.696 0 0 0-1.4-.364c-.513 0-.975.121-1.386.364a2.68 2.68 0 0 0-.98 1.008c-.243.429-.364.929-.364 1.498s.121 1.073.364 1.512c.243.429.569.765.98 1.008.411.233.873.35 1.386.35Zm2.73 3.528v-4.9l.14-1.484-.098-1.47v-2.212h.952v10.066h-.994Zm6.8-2.646c-.625 0-1.171-.117-1.638-.35a2.525 2.525 0 0 1-1.092-1.05c-.252-.467-.378-1.05-.378-1.75v-4.27h.994v4.158c0 .784.192 1.377.574 1.778.392.392.938.588 1.638.588.514 0 .957-.103 1.33-.308.383-.215.672-.523.868-.924.206-.401.308-.882.308-1.442v-3.85h.994V275h-.952v-2.016l.154.364a2.743 2.743 0 0 1-1.092 1.274c-.485.299-1.054.448-1.708.448Zm6.369-.07v-7.35h.994V275h-.994Zm.504-8.974a.703.703 0 0 1-.518-.21.687.687 0 0 1-.21-.504c0-.196.07-.359.21-.49.14-.14.312-.21.518-.21a.73.73 0 0 1 .518.196c.14.131.21.294.21.49 0 .205-.07.378-.21.518a.677.677 0 0 1-.518.21Zm6.307 9.044c-.728 0-1.381-.159-1.96-.476a3.612 3.612 0 0 1-1.344-1.33c-.326-.569-.49-1.218-.49-1.946 0-.737.164-1.386.49-1.946.327-.56.775-.999 1.344-1.316.579-.317 1.232-.476 1.96-.476.626 0 1.19.121 1.694.364s.901.607 1.19 1.092l-.742.504a2.328 2.328 0 0 0-.938-.826 2.805 2.805 0 0 0-1.218-.266c-.522 0-.994.121-1.414.364-.42.233-.751.565-.994.994-.242.429-.364.933-.364 1.512s.122 1.083.364 1.512c.243.429.574.765.994 1.008.42.233.892.35 1.414.35.439 0 .845-.089 1.218-.266a2.36 2.36 0 0 0 .938-.812l.742.504a2.86 2.86 0 0 1-1.19 1.092 3.848 3.848 0 0 1-1.694.364Zm5.512-1.974.028-1.274 4.578-4.172h1.218l-3.234 3.094-.56.476-2.03 1.876Zm-.784 1.904v-10.388h.994V275h-.994Zm5.698 0-3.066-3.822.644-.77 3.64 4.592h-1.218Zm2.71 0v-10.388h.994V275h-.994Zm3.816 2.786a2.96 2.96 0 0 1-.994-.168 2.154 2.154 0 0 1-.798-.504l.462-.742c.186.177.387.313.602.406.224.103.471.154.742.154.326 0 .606-.093.84-.28.242-.177.471-.495.686-.952l.476-1.078.112-.154 3.024-6.818h.98l-3.682 8.232c-.206.476-.434.854-.686 1.134-.243.28-.509.476-.798.588-.29.121-.612.182-.966.182Zm1.96-2.576-3.388-7.56h1.036l2.996 6.748-.644.812Zm11.21-.14a5.775 5.775 0 0 1-1.722-.252c-.542-.177-.966-.397-1.274-.658l.448-.784c.298.224.681.42 1.148.588a4.52 4.52 0 0 0 1.47.238c.7 0 1.204-.107 1.512-.322.308-.224.462-.518.462-.882 0-.271-.089-.481-.266-.63a1.534 1.534 0 0 0-.672-.35 7.41 7.41 0 0 0-.938-.21 19.657 19.657 0 0 1-1.036-.196 4.012 4.012 0 0 1-.924-.322 1.937 1.937 0 0 1-.686-.602c-.168-.252-.252-.588-.252-1.008 0-.401.112-.761.336-1.078.224-.317.55-.565.98-.742.438-.187.97-.28 1.596-.28.476 0 .952.065 1.428.196.476.121.868.285 1.176.49l-.434.798a3.229 3.229 0 0 0-1.05-.476 4.2 4.2 0 0 0-1.12-.154c-.663 0-1.153.117-1.47.35-.308.224-.462.513-.462.868 0 .28.084.499.252.658.177.159.406.285.686.378.289.084.602.154.938.21.345.056.686.126 1.022.21.345.075.658.182.938.322.289.131.518.322.686.574.177.243.266.565.266.966 0 .429-.122.803-.364 1.12-.234.308-.579.551-1.036.728-.448.168-.994.252-1.638.252Zm7.984 0c-.766 0-1.438-.159-2.016-.476a3.57 3.57 0 0 1-1.358-1.33c-.327-.569-.49-1.218-.49-1.946s.154-1.372.462-1.932c.317-.56.746-.999 1.288-1.316a3.547 3.547 0 0 1 1.848-.49c.69 0 1.302.159 1.834.476a3.27 3.27 0 0 1 1.274 1.316c.308.56.462 1.209.462 1.946a.978.978 0 0 1-.014.154v.154h-6.398v-.742h5.866l-.392.294c0-.532-.117-1.003-.35-1.414a2.46 2.46 0 0 0-.924-.98c-.392-.233-.845-.35-1.358-.35-.504 0-.957.117-1.358.35-.402.233-.714.56-.938.98-.224.42-.336.901-.336 1.442v.154c0 .56.121 1.055.364 1.484.252.42.597.751 1.036.994.448.233.956.35 1.526.35.448 0 .863-.079 1.246-.238a2.592 2.592 0 0 0 1.008-.728l.56.644a3.147 3.147 0 0 1-1.232.896 4.1 4.1 0 0 1-1.61.308Zm7.651 0c-.691 0-1.223-.187-1.596-.56-.374-.373-.56-.901-.56-1.582v-6.902h.994v6.846c0 .429.107.761.322.994.224.233.541.35.952.35.438 0 .802-.126 1.092-.378l.35.714a1.835 1.835 0 0 1-.714.392 2.82 2.82 0 0 1-.84.126Zm-3.472-6.594v-.826h4.55v.826h-4.55Zm9.873 6.594c-.625 0-1.171-.117-1.638-.35a2.525 2.525 0 0 1-1.092-1.05c-.252-.467-.378-1.05-.378-1.75v-4.27h.994v4.158c0 .784.192 1.377.574 1.778.392.392.938.588 1.638.588.514 0 .957-.103 1.33-.308.383-.215.672-.523.868-.924.206-.401.308-.882.308-1.442v-3.85h.994V275h-.952v-2.016l.154.364a2.743 2.743 0 0 1-1.092 1.274c-.485.299-1.054.448-1.708.448Zm10.163 0a3.447 3.447 0 0 1-1.722-.434 3.299 3.299 0 0 1-1.232-1.274c-.299-.56-.448-1.241-.448-2.044 0-.803.149-1.479.448-2.03.298-.56.704-.985 1.218-1.274a3.476 3.476 0 0 1 1.736-.434c.7 0 1.325.159 1.876.476.56.308.998.747 1.316 1.316.317.56.476 1.209.476 1.946 0 .747-.159 1.4-.476 1.96a3.43 3.43 0 0 1-1.316 1.316c-.551.317-1.176.476-1.876.476Zm-3.794 2.646V267.65h.952v2.212l-.098 1.47.14 1.484v4.9h-.994Zm3.724-3.528a2.79 2.79 0 0 0 1.4-.35c.41-.243.737-.579.98-1.008.242-.439.364-.943.364-1.512 0-.569-.122-1.069-.364-1.498a2.688 2.688 0 0 0-.98-1.008 2.699 2.699 0 0 0-1.4-.364 2.77 2.77 0 0 0-1.414.364 2.673 2.673 0 0 0-.98 1.008c-.234.429-.35.929-.35 1.498s.116 1.073.35 1.512c.242.429.569.765.98 1.008.42.233.891.35 1.414.35Zm14.034.812v-1.624l-.042-.266v-2.716c0-.625-.177-1.106-.532-1.442-.345-.336-.863-.504-1.554-.504-.476 0-.929.079-1.358.238a3.48 3.48 0 0 0-1.092.63l-.448-.742c.373-.317.821-.56 1.344-.728a5.116 5.116 0 0 1 1.652-.266c.952 0 1.685.238 2.198.714.523.467.784 1.181.784 2.142V275h-.952Zm-2.534.07c-.551 0-1.031-.089-1.442-.266-.401-.187-.709-.439-.924-.756a1.991 1.991 0 0 1-.322-1.12c0-.383.089-.728.266-1.036.187-.317.485-.569.896-.756.42-.196.98-.294 1.68-.294h2.534v.742h-2.506c-.709 0-1.204.126-1.484.378a1.229 1.229 0 0 0-.406.938c0 .42.163.756.49 1.008.327.252.784.378 1.372.378.56 0 1.041-.126 1.442-.378.411-.261.709-.635.896-1.12l.224.686a2.326 2.326 0 0 1-.98 1.162c-.457.289-1.036.434-1.736.434Zm10.06-.07v-9.8h3.99c1.045 0 1.96.21 2.744.63a4.522 4.522 0 0 1 1.848 1.722c.438.737.658 1.587.658 2.548 0 .961-.22 1.811-.658 2.548a4.615 4.615 0 0 1-1.848 1.736c-.784.411-1.699.616-2.744.616h-3.99Zm1.036-.896H257c.868 0 1.619-.168 2.254-.504a3.777 3.777 0 0 0 1.498-1.414c.354-.607.532-1.302.532-2.086 0-.793-.178-1.489-.532-2.086a3.684 3.684 0 0 0-1.498-1.4c-.635-.345-1.386-.518-2.254-.518h-2.898v8.008Zm13.232.98a6.365 6.365 0 0 1-2.1-.35c-.663-.243-1.176-.551-1.54-.924l.406-.798c.345.336.807.621 1.386.854a5.147 5.147 0 0 0 1.848.336c.616 0 1.115-.075 1.498-.224.392-.159.677-.369.854-.63.187-.261.28-.551.28-.868 0-.383-.112-.691-.336-.924a2.148 2.148 0 0 0-.854-.546 8.826 8.826 0 0 0-1.176-.364c-.429-.103-.859-.21-1.288-.322a5.854 5.854 0 0 1-1.19-.476 2.562 2.562 0 0 1-.868-.77c-.215-.327-.322-.751-.322-1.274 0-.485.126-.929.378-1.33.261-.411.658-.737 1.19-.98.532-.252 1.213-.378 2.044-.378a5.78 5.78 0 0 1 1.638.238 4.581 4.581 0 0 1 1.4.63l-.35.826a4.618 4.618 0 0 0-1.344-.616 5.014 5.014 0 0 0-1.358-.196c-.588 0-1.073.079-1.456.238-.383.159-.667.373-.854.644a1.56 1.56 0 0 0-.266.896c0 .383.107.691.322.924.224.233.513.415.868.546.364.131.761.247 1.19.35.429.103.854.215 1.274.336.429.121.821.28 1.176.476.364.187.653.439.868.756.224.317.336.733.336 1.246 0 .476-.131.919-.392 1.33-.261.401-.663.728-1.204.98-.532.243-1.218.364-2.058.364Zm4.343-.084 4.48-9.8h1.022l4.48 9.8h-1.092l-4.116-9.198h.42L272.754 275h-1.078Zm1.764-2.618.308-.84h5.698l.308.84h-6.314ZM286.902 275v-8.274c0-.653.191-1.181.574-1.582.382-.401.933-.602 1.652-.602.28 0 .55.037.812.112.261.075.48.191.658.35l-.336.742a1.325 1.325 0 0 0-.49-.266 1.823 1.823 0 0 0-.602-.098c-.42 0-.742.117-.966.35-.224.233-.336.579-.336 1.036v1.12l.028.462V275h-.994Zm-1.316-6.524v-.826h4.55v.826h-4.55Zm8.765 6.594c-.71 0-1.349-.159-1.918-.476a3.633 3.633 0 0 1-1.33-1.33c-.327-.569-.49-1.218-.49-1.946 0-.737.163-1.386.49-1.946.326-.56.77-.999 1.33-1.316.56-.317 1.199-.476 1.918-.476.728 0 1.372.159 1.932.476a3.406 3.406 0 0 1 1.33 1.316c.326.56.49 1.209.49 1.946 0 .728-.164 1.377-.49 1.946a3.51 3.51 0 0 1-1.33 1.33c-.57.317-1.214.476-1.932.476Zm0-.882c.532 0 1.003-.117 1.414-.35.41-.243.732-.579.966-1.008.242-.439.364-.943.364-1.512 0-.579-.122-1.083-.364-1.512a2.486 2.486 0 0 0-.966-.994 2.699 2.699 0 0 0-1.4-.364c-.523 0-.99.121-1.4.364a2.566 2.566 0 0 0-.98.994c-.243.429-.364.933-.364 1.512 0 .569.121 1.073.364 1.512.242.429.569.765.98 1.008.41.233.872.35 1.386.35Zm5.781.812v-10.388h.994V275h-.994Zm6.686.07c-.7 0-1.33-.159-1.89-.476a3.45 3.45 0 0 1-1.302-1.316c-.317-.569-.476-1.223-.476-1.96 0-.747.159-1.4.476-1.96.317-.56.751-.994 1.302-1.302a3.77 3.77 0 0 1 1.89-.476c.644 0 1.218.145 1.722.434.513.289.919.714 1.218 1.274.308.551.462 1.227.462 2.03 0 .793-.149 1.47-.448 2.03a3.19 3.19 0 0 1-1.218 1.288c-.504.289-1.083.434-1.736.434Zm.07-.882c.523 0 .989-.117 1.4-.35.42-.243.747-.579.98-1.008.243-.439.364-.943.364-1.512 0-.579-.121-1.083-.364-1.512a2.45 2.45 0 0 0-.98-.994 2.696 2.696 0 0 0-1.4-.364c-.513 0-.975.121-1.386.364a2.573 2.573 0 0 0-.98.994c-.243.429-.364.933-.364 1.512 0 .569.121 1.073.364 1.512.243.429.569.765.98 1.008.411.233.873.35 1.386.35Zm2.772.812v-2.212l.098-1.484-.14-1.484v-5.208h.994V275h-.952Zm6.842.07c-.765 0-1.437-.159-2.016-.476a3.578 3.578 0 0 1-1.358-1.33c-.327-.569-.49-1.218-.49-1.946s.154-1.372.462-1.932c.317-.56.747-.999 1.288-1.316a3.552 3.552 0 0 1 1.848-.49c.691 0 1.302.159 1.834.476a3.27 3.27 0 0 1 1.274 1.316c.308.56.462 1.209.462 1.946a.978.978 0 0 1-.014.154v.154h-6.398v-.742h5.866l-.392.294c0-.532-.117-1.003-.35-1.414a2.46 2.46 0 0 0-.924-.98c-.392-.233-.845-.35-1.358-.35-.504 0-.957.117-1.358.35-.401.233-.714.56-.938.98-.224.42-.336.901-.336 1.442v.154c0 .56.121 1.055.364 1.484.252.42.597.751 1.036.994.448.233.957.35 1.526.35.448 0 .863-.079 1.246-.238a2.592 2.592 0 0 0 1.008-.728l.56.644a3.14 3.14 0 0 1-1.232.896 4.096 4.096 0 0 1-1.61.308Zm5.327-.07v-7.35h.952v2.002l-.098-.35c.206-.56.551-.985 1.036-1.274.486-.299 1.088-.448 1.806-.448v.966h-.112a.47.47 0 0 0-.112-.014c-.774 0-1.381.238-1.82.714-.438.467-.658 1.134-.658 2.002V275h-.994Z" fill="#000"/></svg>