<svg width="331" height="300" fill="none" xmlns="http://www.w3.org/2000/svg"><path d="M205.376 86.32c-1.707 0-3.296-.277-4.768-.832a11.901 11.901 0 0 1-3.808-2.4 11.233 11.233 0 0 1-2.496-3.68c-.597-1.408-.896-2.944-.896-4.608 0-1.664.299-3.2.896-4.608a10.668 10.668 0 0 1 2.528-3.648 11.21 11.21 0 0 1 3.808-2.4c1.451-.576 3.04-.864 4.768-.864 1.835 0 3.509.32 5.024.96a9.8 9.8 0 0 1 3.84 2.784l-2.688 2.528c-.811-.875-1.717-1.525-2.72-1.952-1.003-.448-2.091-.672-3.264-.672-1.173 0-2.251.192-3.232.576a7.69 7.69 0 0 0-2.528 1.632 7.748 7.748 0 0 0-1.664 2.496c-.384.96-.576 2.016-.576 3.168 0 1.152.192 2.208.576 3.168.405.96.96 1.792 1.664 2.496a7.69 7.69 0 0 0 2.528 1.632c.981.384 2.059.576 3.232.576s2.261-.213 3.264-.64c1.003-.448 1.909-1.12 2.72-2.016l2.688 2.56a10.242 10.242 0 0 1-3.84 2.784c-1.515.64-3.2.96-5.056.96Zm12.882-.32V63.6h9.216c1.984 0 3.68.32 5.088.96 1.429.64 2.528 1.557 3.296 2.752.768 1.195 1.152 2.613 1.152 4.256 0 1.643-.384 3.061-1.152 4.256-.768 1.173-1.867 2.08-3.296 2.72-1.408.619-3.104.928-5.088.928h-6.912l1.856-1.888V86h-4.16Zm14.656 0-5.664-8.128h4.448L237.394 86h-4.48Zm-10.496-7.968-1.856-1.984h6.72c1.835 0 3.211-.395 4.128-1.184.939-.79 1.408-1.888 1.408-3.296 0-1.43-.469-2.528-1.408-3.296-.917-.768-2.293-1.152-4.128-1.152h-6.72l1.856-2.048v12.96Zm23.086-5.12h11.136v3.424h-11.136v-3.424Zm.32 9.6h12.64V86h-16.8V63.6h16.352v3.488h-12.192v15.424ZM259.934 86l10.08-22.4h4.096L284.222 86h-4.352l-8.672-20.192h1.664L264.222 86h-4.288Zm4.64-5.184 1.12-3.264h12.096l1.12 3.264h-14.336ZM290.49 86V67.12h-7.424V63.6h19.008v3.52h-7.424V86h-4.16Zm18.546-13.088h11.136v3.424h-11.136v-3.424Zm.32 9.6h12.64V86h-16.8V63.6h16.352v3.488h-12.192v15.424Zm-110.54 111.392h11.168v3.52h-11.168v-3.52Zm.352 12.096h-4.16v-22.4h16.352v3.488h-12.192V206Zm26.461.32c-1.749 0-3.36-.288-4.832-.864-1.472-.576-2.752-1.376-3.84-2.4a11.086 11.086 0 0 1-2.528-3.648c-.597-1.408-.896-2.944-.896-4.608 0-1.664.299-3.189.896-4.576a10.668 10.668 0 0 1 2.528-3.648 11.557 11.557 0 0 1 3.84-2.432c1.472-.576 3.072-.864 4.8-.864 1.749 0 3.349.288 4.8.864a11.557 11.557 0 0 1 3.84 2.432 10.668 10.668 0 0 1 2.528 3.648c.597 1.387.896 2.912.896 4.576 0 1.664-.299 3.2-.896 4.608a10.668 10.668 0 0 1-2.528 3.648c-1.088 1.024-2.368 1.824-3.84 2.4-1.451.576-3.04.864-4.768.864Zm-.032-3.648c1.131 0 2.176-.192 3.136-.576a7.343 7.343 0 0 0 2.496-1.632 7.773 7.773 0 0 0 1.632-2.496c.405-.96.608-2.016.608-3.168 0-1.152-.203-2.197-.608-3.136a7.343 7.343 0 0 0-1.632-2.496 7.125 7.125 0 0 0-2.496-1.664c-.96-.384-2.005-.576-3.136-.576-1.131 0-2.176.192-3.136.576a7.53 7.53 0 0 0-2.496 1.664 7.748 7.748 0 0 0-1.664 2.496c-.384.939-.576 1.984-.576 3.136 0 1.131.192 2.176.576 3.136.405.96.96 1.803 1.664 2.528a7.343 7.343 0 0 0 2.496 1.632c.96.384 2.005.576 3.136.576ZM242.071 206v-22.4h4.16v18.88h11.712V206h-15.872Zm19.156 0v-22.4h9.792c2.432 0 4.565.469 6.4 1.408 1.834.939 3.264 2.24 4.288 3.904 1.024 1.664 1.536 3.627 1.536 5.888 0 2.24-.512 4.203-1.536 5.888-1.024 1.664-2.454 2.965-4.288 3.904-1.835.939-3.968 1.408-6.4 1.408h-9.792Zm4.16-3.52h5.44c1.685 0 3.136-.32 4.352-.96 1.237-.64 2.186-1.536 2.848-2.688.682-1.152 1.024-2.496 1.024-4.032 0-1.557-.342-2.901-1.024-4.032-.662-1.152-1.611-2.048-2.848-2.688-1.216-.64-2.667-.96-4.352-.96h-5.44v15.36Zm26.117-9.568h11.136v3.424h-11.136v-3.424Zm.32 9.6h12.64V206h-16.8v-22.4h16.352v3.488h-12.192v15.424ZM309.102 206v-22.4h9.216c1.984 0 3.68.32 5.088.96 1.429.64 2.528 1.557 3.296 2.752.768 1.195 1.152 2.613 1.152 4.256 0 1.643-.384 3.061-1.152 4.256-.768 1.173-1.867 2.08-3.296 2.72-1.408.619-3.104.928-5.088.928h-6.912l1.856-1.888V206h-4.16Zm14.656 0-5.664-8.128h4.448l5.696 8.128h-4.48Zm-10.496-7.968-1.856-1.984h6.72c1.834 0 3.21-.395 4.128-1.184.938-.789 1.408-1.888 1.408-3.296 0-1.429-.47-2.528-1.408-3.296-.918-.768-2.294-1.152-4.128-1.152h-6.72l1.856-2.048v12.96Z" fill="#381B00"/><ellipse cx="80.191" cy="135" rx="80.191" ry="80" fill="#DE9368"/><path d="M78.893 58.243a1.5 1.5 0 0 1 2.596 0l40.804 70.506a1.5 1.5 0 0 1-1.299 2.251H39.388a1.5 1.5 0 0 1-1.299-2.251l40.804-70.506Zm-25.06 75a1.5 1.5 0 0 1 2.596 0l19.102 33.006a1.5 1.5 0 0 1-1.299 2.251H36.03a1.5 1.5 0 0 1-1.298-2.251l19.101-33.006Zm-12.53 37.5a1.5 1.5 0 0 1 2.597 0l8.25 14.256a1.5 1.5 0 0 1-1.299 2.251h-16.5a1.5 1.5 0 0 1-1.298-2.251l8.25-14.256Zm-6.265 18.75a1.5 1.5 0 0 1 2.597 0l2.824 4.881a1.5 1.5 0 0 1-1.298 2.251h-5.649a1.5 1.5 0 0 1-1.298-2.251l2.824-4.881Zm62.649 0a1.5 1.5 0 0 1 2.597 0l2.824 4.881a1.5 1.5 0 0 1-1.298 2.251h-5.649a1.5 1.5 0 0 1-1.298-2.251l2.824-4.881Zm12.53 0a1.5 1.5 0 0 1 2.597 0l2.824 4.881a1.5 1.5 0 0 1-1.298 2.251h-5.649a1.5 1.5 0 0 1-1.298-2.251l2.824-4.881Zm12.53 0a1.5 1.5 0 0 1 2.597 0l2.824 4.881a1.5 1.5 0 0 1-1.298 2.251h-5.649a1.5 1.5 0 0 1-1.298-2.251l2.824-4.881Zm-37.589 0a1.5 1.5 0 0 1 2.596 0l2.825 4.881a1.5 1.5 0 0 1-1.299 2.251h-5.649a1.5 1.5 0 0 1-1.298-2.251l2.825-4.881Zm-12.53 0a1.5 1.5 0 0 1 2.596 0l2.825 4.881a1.5 1.5 0 0 1-1.299 2.251h-5.648a1.5 1.5 0 0 1-1.299-2.251l2.825-4.881Zm-12.53 0a1.5 1.5 0 0 1 2.596 0l2.825 4.881a1.5 1.5 0 0 1-1.298 2.251h-5.65a1.5 1.5 0 0 1-1.297-2.251l2.824-4.881Zm-12.53 0a1.5 1.5 0 0 1 2.597 0l2.824 4.881a1.5 1.5 0 0 1-1.298 2.251h-5.649a1.5 1.5 0 0 1-1.298-2.251l2.824-4.881Zm68.914-18.75a1.5 1.5 0 0 1 2.597 0l8.25 14.256a1.5 1.5 0 0 1-1.299 2.251h-16.5a1.5 1.5 0 0 1-1.298-2.251l8.25-14.256Zm-25.06 0a1.5 1.5 0 0 1 2.597 0l8.25 14.256a1.5 1.5 0 0 1-1.298 2.251h-16.5a1.5 1.5 0 0 1-1.299-2.251l8.25-14.256Zm-25.059 0a1.5 1.5 0 0 1 2.596 0l8.25 14.256a1.5 1.5 0 0 1-1.298 2.251h-16.5a1.5 1.5 0 0 1-1.298-2.251l8.25-14.256Zm37.589-37.5a1.5 1.5 0 0 1 2.597 0l19.101 33.006a1.5 1.5 0 0 1-1.298 2.251H86.149a1.5 1.5 0 0 1-1.298-2.251l19.101-33.006Z" fill="#381B00"/><path d="M193.016 153v-44.8H212.6c4.864 0 9.131.939 12.8 2.816 3.669 1.877 6.528 4.48 8.576 7.808 2.048 3.328 3.072 7.253 3.072 11.776 0 4.48-1.024 8.405-3.072 11.776-2.048 3.328-4.907 5.931-8.576 7.808-3.669 1.877-7.936 2.816-12.8 2.816h-19.584Zm8.32-7.04h10.88c3.371 0 6.272-.64 8.704-1.92 2.475-1.28 4.373-3.072 5.696-5.376 1.365-2.304 2.048-4.992 2.048-8.064 0-3.115-.683-5.803-2.048-8.064-1.323-2.304-3.221-4.096-5.696-5.376-2.432-1.28-5.333-1.92-8.704-1.92h-10.88v30.72Zm58.443 7.68c-3.499 0-6.848-.491-10.048-1.472-3.2-1.024-5.739-2.325-7.616-3.904l2.88-6.464c1.792 1.408 4.011 2.581 6.656 3.52a24.127 24.127 0 0 0 8.128 1.408c2.347 0 4.245-.256 5.696-.768 1.451-.512 2.517-1.195 3.2-2.048a4.84 4.84 0 0 0 1.024-3.008c0-1.365-.491-2.453-1.472-3.264-.981-.853-2.261-1.515-3.84-1.984-1.536-.512-3.264-.981-5.184-1.408a101.957 101.957 0 0 1-5.696-1.472 27.134 27.134 0 0 1-5.184-2.24 11.622 11.622 0 0 1-3.776-3.712c-.981-1.536-1.472-3.499-1.472-5.888 0-2.432.64-4.651 1.92-6.656 1.323-2.048 3.307-3.669 5.952-4.864 2.688-1.237 6.08-1.856 10.176-1.856 2.688 0 5.355.341 8 1.024 2.645.683 4.949 1.664 6.912 2.944l-2.624 6.464c-2.005-1.195-4.075-2.069-6.208-2.624-2.133-.597-4.181-.896-6.144-.896-2.304 0-4.181.277-5.632.832-1.408.555-2.453 1.28-3.136 2.176-.64.896-.96 1.92-.96 3.072 0 1.365.469 2.475 1.408 3.328.981.811 2.24 1.451 3.776 1.92 1.579.469 3.328.939 5.248 1.408 1.92.427 3.819.917 5.696 1.472 1.92.555 3.648 1.28 5.184 2.176a10.323 10.323 0 0 1 3.776 3.648c.981 1.536 1.472 3.477 1.472 5.824 0 2.389-.661 4.608-1.984 6.656-1.28 2.005-3.264 3.627-5.952 4.864-2.688 1.195-6.08 1.792-10.176 1.792Zm20.026-.64 20.16-44.8h8.192l20.224 44.8h-8.704l-17.344-40.384h3.328L288.381 153h-8.576Zm9.28-10.368 2.24-6.528h24.192l2.24 6.528h-28.672Z" fill="#DE9368"/><path d="m.986 275 4.438-9.8H6.81l4.452 9.8h-1.47l-3.962-9.016h.56L2.428 275H.986Zm1.89-2.45.378-1.12H8.77l.406 1.12h-6.3ZM16.484 275v-9.8h3.822c.858 0 1.591.135 2.198.406.606.271 1.073.663 1.4 1.176.326.513.49 1.125.49 1.834 0 .709-.164 1.321-.49 1.834-.327.504-.794.891-1.4 1.162-.607.271-1.34.406-2.198.406h-3.052l.63-.644V275h-1.4Zm6.552 0-2.492-3.556h1.498l2.52 3.556h-1.526Zm-5.152-3.486-.63-.686h3.01c.896 0 1.572-.191 2.03-.574.466-.392.7-.938.7-1.638s-.234-1.241-.7-1.624c-.458-.383-1.134-.574-2.03-.574h-3.01l.63-.7v5.796Zm11.697 3.57c-.634 0-1.194-.117-1.68-.35a2.564 2.564 0 0 1-1.12-1.064c-.26-.485-.391-1.092-.391-1.82v-4.27h1.343v4.116c0 .728.173 1.274.518 1.638.355.364.85.546 1.484.546.467 0 .873-.093 1.218-.28.346-.196.612-.476.799-.84.186-.373.28-.821.28-1.344v-3.836h1.344V275h-1.274v-2.002l.21.532a2.595 2.595 0 0 1-1.092 1.148 3.301 3.301 0 0 1-1.639.406Zm8.481 0a6.106 6.106 0 0 1-1.764-.252c-.55-.168-.985-.373-1.302-.616l.56-1.064c.318.215.71.397 1.176.546.467.149.943.224 1.428.224.626 0 1.074-.089 1.344-.266.28-.177.42-.425.42-.742a.653.653 0 0 0-.252-.546 1.712 1.712 0 0 0-.672-.294 9.64 9.64 0 0 0-.91-.168 18.85 18.85 0 0 1-1.008-.196 4.5 4.5 0 0 1-.924-.336 1.82 1.82 0 0 1-.672-.602c-.168-.261-.252-.607-.252-1.036 0-.448.126-.84.378-1.176.252-.336.607-.593 1.064-.77.467-.187 1.017-.28 1.652-.28.485 0 .975.061 1.47.182.504.112.915.275 1.232.49l-.574 1.064a3.171 3.171 0 0 0-1.05-.462 4.842 4.842 0 0 0-1.092-.126c-.588 0-1.026.098-1.316.294-.29.187-.434.429-.434.728 0 .252.084.448.252.588.177.131.401.233.672.308.28.075.588.14.924.196.336.047.672.112 1.008.196.336.075.64.182.91.322.28.14.504.336.672.588.177.252.266.588.266 1.008a1.8 1.8 0 0 1-.392 1.162c-.261.327-.63.583-1.106.77-.476.177-1.045.266-1.708.266Zm7.434 0c-.747 0-1.326-.201-1.736-.602-.41-.401-.616-.975-.616-1.722v-6.804h1.344v6.748c0 .401.098.709.294.924.205.215.495.322.868.322.42 0 .77-.117 1.05-.35l.42.966a1.953 1.953 0 0 1-.742.392c-.28.084-.574.126-.882.126Zm-3.612-6.398v-1.106h4.732v1.106h-4.732Zm6.248 3.052v-1.162h3.766v1.162h-3.766Zm9.77 3.346c-.635 0-1.21-.14-1.723-.42-.504-.289-.905-.714-1.204-1.274-.289-.56-.434-1.26-.434-2.1 0-.84.15-1.54.448-2.1.308-.56.714-.98 1.218-1.26a3.48 3.48 0 0 1 1.694-.42c.728 0 1.372.159 1.932.476a3.5 3.5 0 0 1 1.33 1.33c.327.56.49 1.218.49 1.974s-.163 1.419-.49 1.988a3.5 3.5 0 0 1-1.33 1.33c-.56.317-1.204.476-1.932.476ZM53.966 275v-10.388h1.344v4.942l-.14 1.722.084 1.722V275h-1.288Zm3.822-1.092c.476 0 .901-.107 1.274-.322.383-.215.682-.518.896-.91.224-.401.336-.863.336-1.386 0-.532-.112-.989-.336-1.372a2.275 2.275 0 0 0-.896-.91 2.506 2.506 0 0 0-1.274-.322c-.466 0-.891.107-1.274.322a2.4 2.4 0 0 0-.896.91c-.214.383-.322.84-.322 1.372 0 .523.108.985.322 1.386a2.4 2.4 0 0 0 .896.91c.383.215.808.322 1.274.322ZM68.048 275v-1.568l-.07-.294v-2.674c0-.569-.168-1.008-.504-1.316-.327-.317-.821-.476-1.484-.476-.439 0-.868.075-1.288.224a3.21 3.21 0 0 0-1.064.574l-.56-1.008c.383-.308.84-.541 1.372-.7a5.682 5.682 0 0 1 1.694-.252c1.017 0 1.801.247 2.352.742.55.495.826 1.251.826 2.268V275h-1.274Zm-2.436.084c-.55 0-1.036-.093-1.456-.28-.41-.187-.728-.443-.952-.77a1.998 1.998 0 0 1-.336-1.134c0-.401.093-.765.28-1.092.196-.327.509-.588.938-.784.439-.196 1.027-.294 1.764-.294h2.352v.966h-2.296c-.672 0-1.125.112-1.358.336-.233.224-.35.495-.35.812 0 .364.145.658.434.882.29.215.69.322 1.204.322.504 0 .943-.112 1.316-.336.383-.224.658-.551.826-.98l.266.924c-.177.439-.49.789-.938 1.05-.448.252-1.013.378-1.694.378Zm8.325 0a6.106 6.106 0 0 1-1.764-.252c-.55-.168-.984-.373-1.302-.616l.56-1.064c.318.215.71.397 1.176.546.467.149.943.224 1.428.224.626 0 1.074-.089 1.344-.266.28-.177.42-.425.42-.742a.653.653 0 0 0-.252-.546 1.712 1.712 0 0 0-.672-.294 9.64 9.64 0 0 0-.91-.168 18.85 18.85 0 0 1-1.008-.196 4.5 4.5 0 0 1-.924-.336 1.82 1.82 0 0 1-.672-.602c-.168-.261-.252-.607-.252-1.036 0-.448.126-.84.378-1.176.252-.336.607-.593 1.064-.77.467-.187 1.017-.28 1.652-.28.486 0 .975.061 1.47.182.504.112.915.275 1.232.49l-.574 1.064a3.171 3.171 0 0 0-1.05-.462 4.842 4.842 0 0 0-1.092-.126c-.588 0-1.026.098-1.316.294-.29.187-.434.429-.434.728 0 .252.084.448.252.588.177.131.401.233.672.308.28.075.588.14.924.196.336.047.672.112 1.008.196.336.075.64.182.91.322.28.14.504.336.672.588.178.252.266.588.266 1.008a1.8 1.8 0 0 1-.392 1.162c-.261.327-.63.583-1.106.77-.476.177-1.045.266-1.708.266Zm8.19 0c-.793 0-1.493-.163-2.1-.49a3.598 3.598 0 0 1-1.4-1.344c-.327-.569-.49-1.223-.49-1.96 0-.737.159-1.391.476-1.96a3.5 3.5 0 0 1 1.33-1.33 3.781 3.781 0 0 1 1.918-.49c.718 0 1.353.159 1.904.476.55.317.98.765 1.288 1.344.317.569.476 1.237.476 2.002 0 .056-.005.121-.014.196 0 .075-.005.145-.014.21h-6.314v-.966H84.8l-.546.336a2.493 2.493 0 0 0-.294-1.274 2.183 2.183 0 0 0-.854-.868c-.355-.215-.77-.322-1.246-.322-.467 0-.882.107-1.246.322a2.157 2.157 0 0 0-.854.882 2.63 2.63 0 0 0-.308 1.288v.224c0 .495.112.938.336 1.33.233.383.555.681.966.896.41.215.882.322 1.414.322.439 0 .835-.075 1.19-.224.364-.149.681-.373.952-.672l.742.868a3.237 3.237 0 0 1-1.26.896 4.314 4.314 0 0 1-1.666.308Zm8.334 0c-.719 0-1.363-.159-1.932-.476a3.5 3.5 0 0 1-1.33-1.33c-.327-.569-.49-1.232-.49-1.988s.163-1.414.49-1.974a3.5 3.5 0 0 1 1.33-1.33c.57-.317 1.213-.476 1.932-.476.625 0 1.19.14 1.694.42.504.28.905.7 1.204 1.26.308.56.462 1.26.462 2.1 0 .84-.15 1.54-.448 2.1-.29.56-.686.985-1.19 1.274-.504.28-1.078.42-1.722.42Zm.112-1.176c.467 0 .887-.107 1.26-.322.383-.215.681-.518.896-.91.224-.401.336-.863.336-1.386 0-.532-.112-.989-.336-1.372a2.275 2.275 0 0 0-.896-.91 2.478 2.478 0 0 0-1.26-.322c-.476 0-.9.107-1.274.322a2.4 2.4 0 0 0-.896.91c-.224.383-.336.84-.336 1.372 0 .523.112.985.336 1.386a2.4 2.4 0 0 0 .896.91c.373.215.798.322 1.274.322ZM93.107 275v-2.002l.084-1.722-.14-1.722v-4.942h1.344V275h-1.288Zm12.169.112a5.743 5.743 0 0 1-2.072-.364 5.067 5.067 0 0 1-1.638-1.05 4.997 4.997 0 0 1-1.47-3.598c0-.728.13-1.395.392-2.002a4.789 4.789 0 0 1 1.092-1.582 4.784 4.784 0 0 1 1.638-1.05 5.56 5.56 0 0 1 2.072-.378c.756 0 1.451.131 2.086.392a4.21 4.21 0 0 1 1.638 1.134l-.91.882a3.57 3.57 0 0 0-1.26-.868 3.83 3.83 0 0 0-1.498-.294c-.551 0-1.064.093-1.54.28a3.594 3.594 0 0 0-2.03 1.988 3.92 3.92 0 0 0-.28 1.498c0 .541.093 1.045.28 1.512a3.637 3.637 0 0 0 2.03 1.974c.476.187.989.28 1.54.28a3.99 3.99 0 0 0 1.498-.28 3.655 3.655 0 0 0 1.26-.896l.91.882a4.34 4.34 0 0 1-1.638 1.148 5.473 5.473 0 0 1-2.1.392Zm5.735-.112v-9.8h1.4v8.582h5.306V275h-6.706Zm8.313 0v-9.8h1.4v9.8h-1.4Zm10.445.084c-.746 0-1.325-.201-1.736-.602-.41-.401-.616-.975-.616-1.722v-6.804h1.344v6.748c0 .401.098.709.294.924.206.215.495.322.868.322.42 0 .77-.117 1.05-.35l.42.966a1.946 1.946 0 0 1-.742.392c-.28.084-.574.126-.882.126Zm-3.612-6.398v-1.106h4.732v1.106h-4.732Zm9.793 6.398c-.747 0-1.409-.163-1.988-.49a3.65 3.65 0 0 1-1.372-1.344c-.336-.579-.504-1.232-.504-1.96 0-.737.168-1.391.504-1.96a3.542 3.542 0 0 1 1.372-1.33c.579-.327 1.241-.49 1.988-.49.737 0 1.395.163 1.974.49a3.424 3.424 0 0 1 1.372 1.33c.336.56.504 1.213.504 1.96 0 .737-.168 1.391-.504 1.96a3.525 3.525 0 0 1-1.372 1.344c-.579.327-1.237.49-1.974.49Zm0-1.176c.476 0 .901-.107 1.274-.322.383-.215.681-.518.896-.91.215-.401.322-.863.322-1.386 0-.532-.107-.989-.322-1.372a2.275 2.275 0 0 0-.896-.91 2.505 2.505 0 0 0-1.274-.322c-.476 0-.901.107-1.274.322a2.403 2.403 0 0 0-.896.91c-.224.383-.336.84-.336 1.372 0 .523.112.985.336 1.386.224.392.523.695.896.91.373.215.798.322 1.274.322Zm12.535 1.176c-.719 0-1.363-.159-1.932-.476a3.496 3.496 0 0 1-1.33-1.33c-.327-.569-.49-1.232-.49-1.988s.163-1.414.49-1.974a3.496 3.496 0 0 1 1.33-1.33c.569-.317 1.213-.476 1.932-.476.644 0 1.218.14 1.722.42.504.28.9.7 1.19 1.26.298.56.448 1.26.448 2.1 0 .84-.154 1.54-.462 2.1-.299.56-.7.985-1.204 1.274a3.43 3.43 0 0 1-1.694.42Zm.112-1.176c.466 0 .886-.107 1.26-.322.382-.215.681-.518.896-.91.224-.401.336-.863.336-1.386 0-.532-.112-.989-.336-1.372a2.281 2.281 0 0 0-.896-.91 2.482 2.482 0 0 0-1.26-.322c-.476 0-.901.107-1.274.322a2.396 2.396 0 0 0-.896.91c-.224.383-.336.84-.336 1.372 0 .523.112.985.336 1.386.224.392.522.695.896.91.373.215.798.322 1.274.322Zm2.478 3.808v-4.69l.14-1.722-.084-1.722v-2.002h1.288v10.136h-1.344Zm7.009-2.632c-.635 0-1.195-.117-1.68-.35a2.56 2.56 0 0 1-1.12-1.064c-.262-.485-.392-1.092-.392-1.82v-4.27h1.344v4.116c0 .728.172 1.274.518 1.638.354.364.849.546 1.484.546.466 0 .872-.093 1.218-.28.345-.196.611-.476.798-.84.186-.373.28-.821.28-1.344v-3.836h1.344V275h-1.274v-2.002l.21.532a2.6 2.6 0 0 1-1.092 1.148 3.305 3.305 0 0 1-1.638.406Zm6.352-.084v-7.42h1.344V275h-1.344Zm.672-8.848a.92.92 0 0 1-.658-.252.837.837 0 0 1-.252-.616c0-.252.084-.462.252-.63a.92.92 0 0 1 .658-.252c.261 0 .476.084.644.252a.774.774 0 0 1 .266.602.902.902 0 0 1-.252.644c-.168.168-.387.252-.658.252Zm6.472 8.932c-.756 0-1.432-.163-2.03-.49a3.624 3.624 0 0 1-1.386-1.344c-.336-.569-.504-1.223-.504-1.96 0-.737.168-1.391.504-1.96a3.519 3.519 0 0 1 1.386-1.33c.598-.327 1.274-.49 2.03-.49.672 0 1.27.135 1.792.406.532.261.943.653 1.232 1.176l-1.022.658a2.206 2.206 0 0 0-.896-.798 2.417 2.417 0 0 0-1.12-.266c-.485 0-.919.107-1.302.322a2.375 2.375 0 0 0-.91.91c-.224.383-.336.84-.336 1.372 0 .532.112.994.336 1.386.224.392.528.695.91.91.383.215.817.322 1.302.322.402 0 .775-.084 1.12-.252.355-.177.654-.448.896-.812l1.022.644c-.289.513-.7.91-1.232 1.19-.522.271-1.12.406-1.792.406Zm5.761-1.876.028-1.722 4.27-3.906h1.624l-3.276 3.22-.728.616-1.918 1.792ZM176.249 275v-10.388h1.344V275h-1.344Zm5.67 0-2.912-3.612.868-1.078 3.696 4.69h-1.652Zm2.957 0v-10.388h1.344V275h-1.344Zm4.232 2.8c-.355 0-.7-.061-1.036-.182a2.357 2.357 0 0 1-.868-.504l.574-1.008c.186.177.392.313.616.406.224.093.462.14.714.14.326 0 .597-.084.812-.252.214-.168.415-.467.602-.896l.462-1.022.14-.168 2.912-6.734h1.316l-3.598 8.162c-.215.523-.458.933-.728 1.232a2.204 2.204 0 0 1-.868.63 2.73 2.73 0 0 1-1.05.196Zm1.764-2.562-3.388-7.658h1.4l2.884 6.608-.896 1.05Zm11.622-.154a6.106 6.106 0 0 1-1.764-.252c-.551-.168-.985-.373-1.302-.616l.56-1.064a4.56 4.56 0 0 0 1.176.546c.466.149.942.224 1.428.224.625 0 1.073-.089 1.344-.266.28-.177.42-.425.42-.742a.653.653 0 0 0-.252-.546 1.712 1.712 0 0 0-.672-.294 9.658 9.658 0 0 0-.91-.168 18.85 18.85 0 0 1-1.008-.196 4.5 4.5 0 0 1-.924-.336 1.82 1.82 0 0 1-.672-.602c-.168-.261-.252-.607-.252-1.036 0-.448.126-.84.378-1.176.252-.336.606-.593 1.064-.77.466-.187 1.017-.28 1.652-.28.485 0 .975.061 1.47.182.504.112.914.275 1.232.49l-.574 1.064a3.171 3.171 0 0 0-1.05-.462 4.842 4.842 0 0 0-1.092-.126c-.588 0-1.027.098-1.316.294-.29.187-.434.429-.434.728 0 .252.084.448.252.588.177.131.401.233.672.308.28.075.588.14.924.196.336.047.672.112 1.008.196.336.075.639.182.91.322.28.14.504.336.672.588.177.252.266.588.266 1.008 0 .448-.131.835-.392 1.162-.262.327-.63.583-1.106.77-.476.177-1.046.266-1.708.266Zm8.189 0c-.793 0-1.493-.163-2.1-.49a3.6 3.6 0 0 1-1.4-1.344c-.326-.569-.49-1.223-.49-1.96 0-.737.159-1.391.476-1.96a3.503 3.503 0 0 1 1.33-1.33 3.784 3.784 0 0 1 1.918-.49c.719 0 1.354.159 1.904.476.551.317.98.765 1.288 1.344.318.569.476 1.237.476 2.002 0 .056-.004.121-.014.196 0 .075-.004.145-.014.21h-6.314v-.966h5.614l-.546.336a2.48 2.48 0 0 0-.294-1.274 2.181 2.181 0 0 0-.854-.868c-.354-.215-.77-.322-1.246-.322-.466 0-.882.107-1.246.322a2.161 2.161 0 0 0-.854.882 2.633 2.633 0 0 0-.308 1.288v.224c0 .495.112.938.336 1.33.234.383.556.681.966.896.411.215.882.322 1.414.322.439 0 .836-.075 1.19-.224.364-.149.682-.373.952-.672l.742.868a3.237 3.237 0 0 1-1.26.896 4.312 4.312 0 0 1-1.666.308Zm7.817 0c-.747 0-1.326-.201-1.736-.602-.411-.401-.616-.975-.616-1.722v-6.804h1.344v6.748c0 .401.098.709.294.924.205.215.494.322.868.322.42 0 .77-.117 1.05-.35l.42.966a1.961 1.961 0 0 1-.742.392c-.28.084-.574.126-.882.126Zm-3.612-6.398v-1.106h4.732v1.106h-4.732Zm9.983 6.398c-.635 0-1.195-.117-1.68-.35a2.56 2.56 0 0 1-1.12-1.064c-.262-.485-.392-1.092-.392-1.82v-4.27h1.344v4.116c0 .728.172 1.274.518 1.638.354.364.849.546 1.484.546.466 0 .872-.093 1.218-.28.345-.196.611-.476.798-.84.186-.373.28-.821.28-1.344v-3.836h1.344V275h-1.274v-2.002l.21.532a2.6 2.6 0 0 1-1.092 1.148 3.305 3.305 0 0 1-1.638.406Zm10.286 0c-.616 0-1.18-.14-1.694-.42-.504-.289-.91-.714-1.218-1.274-.298-.56-.448-1.26-.448-2.1 0-.84.145-1.54.434-2.1.299-.56.7-.98 1.204-1.26a3.54 3.54 0 0 1 1.722-.42c.728 0 1.372.159 1.932.476.56.317 1.004.761 1.33 1.33.327.56.49 1.218.49 1.974s-.163 1.419-.49 1.988a3.496 3.496 0 0 1-1.33 1.33c-.56.317-1.204.476-1.932.476Zm-3.934 2.632V267.58h1.288v2.002l-.084 1.722.14 1.722v4.69h-1.344Zm3.822-3.808c.476 0 .901-.107 1.274-.322.383-.215.682-.518.896-.91.224-.401.336-.863.336-1.386 0-.532-.112-.989-.336-1.372a2.268 2.268 0 0 0-.896-.91 2.505 2.505 0 0 0-1.274-.322c-.466 0-.891.107-1.274.322a2.403 2.403 0 0 0-.896.91c-.214.383-.322.84-.322 1.372 0 .523.108.985.322 1.386.224.392.523.695.896.91.383.215.808.322 1.274.322ZM249.132 275v-1.568l-.07-.294v-2.674c0-.569-.168-1.008-.504-1.316-.327-.317-.821-.476-1.484-.476-.439 0-.868.075-1.288.224a3.21 3.21 0 0 0-1.064.574l-.56-1.008c.383-.308.84-.541 1.372-.7a5.68 5.68 0 0 1 1.694-.252c1.017 0 1.801.247 2.352.742.551.495.826 1.251.826 2.268V275h-1.274Zm-2.436.084c-.551 0-1.036-.093-1.456-.28-.411-.187-.728-.443-.952-.77a1.998 1.998 0 0 1-.336-1.134c0-.401.093-.765.28-1.092.196-.327.509-.588.938-.784.439-.196 1.027-.294 1.764-.294h2.352v.966h-2.296c-.672 0-1.125.112-1.358.336-.233.224-.35.495-.35.812 0 .364.145.658.434.882.289.215.691.322 1.204.322.504 0 .943-.112 1.316-.336.383-.224.658-.551.826-.98l.266.924c-.177.439-.49.789-.938 1.05-.448.252-1.013.378-1.694.378Zm10.153-.084v-9.8h4.13c1.045 0 1.965.205 2.758.616a4.498 4.498 0 0 1 1.862 1.722c.448.737.672 1.591.672 2.562 0 .971-.224 1.825-.672 2.562a4.498 4.498 0 0 1-1.862 1.722c-.793.411-1.713.616-2.758.616h-4.13Zm1.4-1.218h2.646c.812 0 1.512-.154 2.1-.462a3.366 3.366 0 0 0 1.386-1.288c.327-.56.49-1.204.49-1.932 0-.737-.163-1.381-.49-1.932a3.366 3.366 0 0 0-1.386-1.288c-.588-.308-1.288-.462-2.1-.462h-2.646v7.364Zm13.022 1.33a6.82 6.82 0 0 1-2.142-.336c-.681-.233-1.218-.532-1.61-.896l.518-1.092c.374.327.85.597 1.428.812a5.146 5.146 0 0 0 1.806.322c.57 0 1.032-.065 1.386-.196.355-.131.616-.308.784-.532a1.31 1.31 0 0 0 .252-.784c0-.336-.112-.607-.336-.812-.214-.205-.499-.369-.854-.49a8.288 8.288 0 0 0-1.148-.336 23.31 23.31 0 0 1-1.274-.322 6.24 6.24 0 0 1-1.162-.49 2.42 2.42 0 0 1-.84-.784c-.214-.336-.322-.765-.322-1.288 0-.504.131-.966.392-1.386.271-.429.682-.77 1.232-1.022.56-.261 1.27-.392 2.128-.392.57 0 1.134.075 1.694.224.56.149 1.046.364 1.456.644l-.462 1.12a4.356 4.356 0 0 0-1.33-.602 5.009 5.009 0 0 0-1.358-.196c-.55 0-1.003.07-1.358.21-.354.14-.616.327-.784.56a1.368 1.368 0 0 0-.238.784c0 .345.108.621.322.826.224.205.509.369.854.49.355.121.742.233 1.162.336.42.093.84.201 1.26.322.43.121.817.28 1.162.476.355.196.64.457.854.784.215.327.322.747.322 1.26 0 .495-.135.957-.406 1.386-.27.42-.69.761-1.26 1.022-.56.252-1.269.378-2.128.378Zm4.356-.112 4.438-9.8h1.386l4.452 9.8h-1.47l-3.962-9.016h.56L277.069 275h-1.442Zm1.89-2.45.378-1.12h5.516l.406 1.12h-6.3Zm13.607 2.45v-8.078c0-.728.21-1.307.63-1.736.43-.439 1.036-.658 1.82-.658.29 0 .565.037.826.112.271.065.5.173.686.322l-.406 1.022a1.45 1.45 0 0 0-.476-.252 1.613 1.613 0 0 0-.56-.098c-.392 0-.69.112-.896.336-.205.215-.308.537-.308.966v.994l.028.616V275h-1.344Zm-1.26-6.314v-1.106h4.732v1.106h-4.732Zm9.068 6.398c-.746 0-1.409-.163-1.988-.49a3.657 3.657 0 0 1-1.372-1.344c-.336-.579-.504-1.232-.504-1.96 0-.737.168-1.391.504-1.96a3.55 3.55 0 0 1 1.372-1.33c.579-.327 1.242-.49 1.988-.49.738 0 1.396.163 1.974.49a3.418 3.418 0 0 1 1.372 1.33c.336.56.504 1.213.504 1.96 0 .737-.168 1.391-.504 1.96a3.518 3.518 0 0 1-1.372 1.344c-.578.327-1.236.49-1.974.49Zm0-1.176c.476 0 .901-.107 1.274-.322.383-.215.682-.518.896-.91.215-.401.322-.863.322-1.386 0-.532-.107-.989-.322-1.372a2.268 2.268 0 0 0-.896-.91 2.505 2.505 0 0 0-1.274-.322c-.476 0-.9.107-1.274.322a2.403 2.403 0 0 0-.896.91c-.224.383-.336.84-.336 1.372 0 .523.112.985.336 1.386.224.392.523.695.896.91.374.215.798.322 1.274.322Zm5.709 1.092v-10.388h1.344V275h-1.344Zm6.976.084c-.718 0-1.362-.159-1.932-.476a3.503 3.503 0 0 1-1.33-1.33c-.326-.569-.49-1.232-.49-1.988s.164-1.414.49-1.974a3.503 3.503 0 0 1 1.33-1.33c.57-.317 1.214-.476 1.932-.476.626 0 1.19.14 1.694.42.504.28.906.7 1.204 1.26.308.56.462 1.26.462 2.1 0 .84-.149 1.54-.448 2.1-.289.56-.686.985-1.19 1.274-.504.28-1.078.42-1.722.42Zm.112-1.176c.467 0 .887-.107 1.26-.322.383-.215.682-.518.896-.91.224-.401.336-.863.336-1.386 0-.532-.112-.989-.336-1.372a2.268 2.268 0 0 0-.896-.91 2.477 2.477 0 0 0-1.26-.322c-.476 0-.9.107-1.274.322a2.403 2.403 0 0 0-.896.91c-.224.383-.336.84-.336 1.372 0 .523.112.985.336 1.386.224.392.523.695.896.91.374.215.798.322 1.274.322Zm2.534 1.092v-2.002l.084-1.722-.14-1.722v-4.942h1.344V275h-1.288Zm7.135.084c-.793 0-1.493-.163-2.1-.49a3.6 3.6 0 0 1-1.4-1.344c-.326-.569-.49-1.223-.49-1.96 0-.737.159-1.391.476-1.96a3.503 3.503 0 0 1 1.33-1.33 3.784 3.784 0 0 1 1.918-.49c.719 0 1.354.159 1.904.476.551.317.98.765 1.288 1.344.318.569.476 1.237.476 2.002 0 .056-.004.121-.014.196 0 .075-.004.145-.014.21h-6.314v-.966h5.614l-.546.336a2.48 2.48 0 0 0-.294-1.274 2.181 2.181 0 0 0-.854-.868c-.354-.215-.77-.322-1.246-.322-.466 0-.882.107-1.246.322a2.161 2.161 0 0 0-.854.882 2.633 2.633 0 0 0-.308 1.288v.224c0 .495.112.938.336 1.33.234.383.556.681.966.896.411.215.882.322 1.414.322.439 0 .836-.075 1.19-.224.364-.149.682-.373.952-.672l.742.868a3.237 3.237 0 0 1-1.26.896 4.312 4.312 0 0 1-1.666.308Zm5.269-.084v-7.42h1.288v2.016l-.126-.504c.205-.513.55-.905 1.036-1.176.485-.271 1.082-.406 1.792-.406v1.302a1.058 1.058 0 0 0-.168-.014h-.14c-.719 0-1.288.215-1.708.644-.42.429-.63 1.05-.63 1.862V275h-1.344Z" fill="#000"/></svg>