<svg width="435" height="300" fill="none" xmlns="http://www.w3.org/2000/svg"><path d="M257.805 76.216c-1.707 0-3.296-.277-4.768-.831a11.901 11.901 0 0 1-3.808-2.4 11.233 11.233 0 0 1-2.496-3.68c-.598-1.409-.896-2.945-.896-4.609 0-1.663.298-3.2.896-4.607a10.668 10.668 0 0 1 2.528-3.648 11.21 11.21 0 0 1 3.808-2.4c1.45-.576 3.04-.864 4.768-.864 1.834 0 3.509.32 5.024.96a9.815 9.815 0 0 1 3.84 2.783l-2.688 2.529c-.811-.875-1.718-1.526-2.72-1.953-1.003-.448-2.091-.672-3.264-.672-1.174 0-2.251.193-3.232.577a7.69 7.69 0 0 0-2.528 1.631 7.748 7.748 0 0 0-1.664 2.497c-.384.96-.576 2.015-.576 3.167 0 1.153.192 2.209.576 3.169.405.96.96 1.791 1.664 2.496a7.69 7.69 0 0 0 2.528 1.632c.981.383 2.058.576 3.232.576 1.173 0 2.261-.214 3.264-.64 1.002-.448 1.909-1.12 2.72-2.017l2.688 2.56a10.258 10.258 0 0 1-3.84 2.785c-1.515.64-3.2.96-5.056.96Zm12.882-.32v-22.4h9.216c1.984 0 3.68.32 5.088.96 1.429.64 2.528 1.558 3.296 2.752.768 1.195 1.152 2.614 1.152 4.257 0 1.642-.384 3.06-1.152 4.255-.768 1.174-1.867 2.08-3.296 2.72-1.408.62-3.104.928-5.088.928h-6.912l1.856-1.887v8.416h-4.16Zm14.656 0-5.664-8.127h4.448l5.696 8.127h-4.48Zm-10.496-7.968-1.856-1.983h6.72c1.834 0 3.21-.395 4.128-1.184.938-.79 1.408-1.888 1.408-3.296 0-1.43-.47-2.529-1.408-3.297-.918-.767-2.294-1.151-4.128-1.151h-6.72l1.856-2.049v12.96Zm23.086-5.12h11.136v3.425h-11.136v-3.425Zm.32 9.6h12.64v3.489h-16.8v-22.4h16.352v3.487h-12.192V72.41Zm14.109 3.489 10.08-22.4h4.096l10.112 22.4h-4.352l-8.672-20.193h1.664l-8.64 20.193h-4.288Zm4.64-5.184 1.12-3.264h12.096l1.12 3.264h-14.336Zm25.916 5.184v-18.88h-7.424v-3.52h19.008v3.52h-7.424v18.88h-4.16Zm18.546-13.089H372.6v3.425h-11.136v-3.425Zm.32 9.6h12.64v3.489h-16.8v-22.4h16.352v3.487h-12.192V72.41ZM251.245 183.802h11.168v3.52h-11.168v-3.52Zm.352 12.096h-4.16v-22.4h16.352v3.488h-12.192v18.912Zm26.461.32c-1.75 0-3.36-.288-4.832-.864-1.472-.576-2.752-1.376-3.84-2.4a11.106 11.106 0 0 1-2.528-3.648c-.598-1.408-.896-2.944-.896-4.608 0-1.664.298-3.19.896-4.576a10.668 10.668 0 0 1 2.528-3.648c1.088-1.046 2.368-1.856 3.84-2.432 1.472-.576 3.072-.864 4.8-.864 1.749 0 3.349.288 4.8.864 1.472.576 2.752 1.386 3.84 2.432a10.682 10.682 0 0 1 2.528 3.648c.597 1.386.896 2.912.896 4.576 0 1.664-.299 3.2-.896 4.608a10.682 10.682 0 0 1-2.528 3.648c-1.088 1.024-2.368 1.824-3.84 2.4-1.451.576-3.04.864-4.768.864Zm-.032-3.648c1.13 0 2.176-.192 3.136-.576a7.343 7.343 0 0 0 2.496-1.632 7.795 7.795 0 0 0 1.632-2.496c.405-.96.608-2.016.608-3.168 0-1.152-.203-2.198-.608-3.136a7.343 7.343 0 0 0-1.632-2.496 7.112 7.112 0 0 0-2.496-1.664c-.96-.384-2.006-.576-3.136-.576-1.131 0-2.176.192-3.136.576a7.514 7.514 0 0 0-2.496 1.664 7.748 7.748 0 0 0-1.664 2.496c-.384.938-.576 1.984-.576 3.136 0 1.13.192 2.176.576 3.136a8.14 8.14 0 0 0 1.664 2.528 7.343 7.343 0 0 0 2.496 1.632c.96.384 2.005.576 3.136.576Zm16.473 3.328v-22.4h4.16v18.88h11.712v3.52h-15.872Zm19.156 0v-22.4h9.792c2.432 0 4.566.469 6.4 1.408 1.835.938 3.264 2.24 4.288 3.904 1.024 1.664 1.536 3.626 1.536 5.888 0 2.24-.512 4.202-1.536 5.888-1.024 1.664-2.453 2.965-4.288 3.904-1.834.938-3.968 1.408-6.4 1.408h-9.792Zm4.16-3.52h5.44c1.686 0 3.136-.32 4.352-.96 1.238-.64 2.187-1.536 2.848-2.688.683-1.152 1.024-2.496 1.024-4.032 0-1.558-.341-2.902-1.024-4.032-.661-1.152-1.61-2.048-2.848-2.688-1.216-.64-2.666-.96-4.352-.96h-5.44v15.36Zm26.118-9.568h11.136v3.424h-11.136v-3.424Zm.32 9.6h12.64v3.488h-16.8v-22.4h16.352v3.488h-12.192v15.424Zm17.277 3.488v-22.4h9.216c1.984 0 3.68.32 5.088.96 1.43.64 2.528 1.557 3.296 2.752.768 1.194 1.152 2.613 1.152 4.256 0 1.642-.384 3.061-1.152 4.256-.768 1.173-1.866 2.08-3.296 2.72-1.408.618-3.104.928-5.088.928h-6.912l1.856-1.888v8.416h-4.16Zm14.656 0-5.664-8.128h4.448l5.696 8.128h-4.48Zm-10.496-7.968-1.856-1.984h6.72c1.835 0 3.211-.395 4.128-1.184.939-.79 1.408-1.888 1.408-3.296 0-1.43-.469-2.528-1.408-3.296-.917-.768-2.293-1.152-4.128-1.152h-6.72l1.856-2.048v12.96Z" fill="#381B00"/><ellipse cx="128.626" cy="124.138" rx="83.055" ry="82.759" fill="#DE9368"/><path d="M127.328 44.654a1.5 1.5 0 0 1 2.596 0l42.352 73.094a1.5 1.5 0 0 1-1.298 2.252H86.274a1.5 1.5 0 0 1-1.298-2.252l42.352-73.094Zm-25.954 77.586a1.5 1.5 0 0 1 2.596 0l19.874 34.301a1.5 1.5 0 0 1-1.298 2.252H82.797a1.5 1.5 0 0 1-1.298-2.252l19.875-34.301Zm-12.977 38.793a1.5 1.5 0 0 1 2.595 0l8.636 14.905a1.5 1.5 0 0 1-1.298 2.252H81.058a1.5 1.5 0 0 1-1.298-2.252l8.636-14.905Zm-6.489 19.397a1.5 1.5 0 0 1 2.596 0l3.016 5.206a1.5 1.5 0 0 1-1.298 2.252H80.19a1.5 1.5 0 0 1-1.298-2.252l3.017-5.206Zm64.886 0a1.5 1.5 0 0 1 2.596 0l3.017 5.206a1.5 1.5 0 0 1-1.298 2.252h-6.033a1.5 1.5 0 0 1-1.298-2.252l3.016-5.206Zm12.978 0a1.5 1.5 0 0 1 2.596 0l3.016 5.206a1.5 1.5 0 0 1-1.298 2.252h-6.033a1.5 1.5 0 0 1-1.298-2.252l3.017-5.206Zm12.977 0a1.5 1.5 0 0 1 2.596 0l3.017 5.206a1.5 1.5 0 0 1-1.298 2.252h-6.034a1.5 1.5 0 0 1-1.297-2.252l3.016-5.206Zm-38.932 0a1.5 1.5 0 0 1 2.596 0l3.016 5.206a1.5 1.5 0 0 1-1.297 2.252h-6.034a1.5 1.5 0 0 1-1.297-2.252l3.016-5.206Zm-12.977 0a1.5 1.5 0 0 1 2.596 0l3.016 5.206a1.5 1.5 0 0 1-1.298 2.252h-6.033a1.5 1.5 0 0 1-1.298-2.252l3.017-5.206Zm-12.978 0a1.5 1.5 0 0 1 2.596 0l3.017 5.206a1.5 1.5 0 0 1-1.298 2.252h-6.033a1.5 1.5 0 0 1-1.298-2.252l3.016-5.206Zm-12.977 0a1.5 1.5 0 0 1 2.596 0l3.017 5.206a1.5 1.5 0 0 1-1.298 2.252h-6.034a1.5 1.5 0 0 1-1.297-2.252l3.016-5.206Zm71.375-19.397a1.5 1.5 0 0 1 2.596 0l8.636 14.905a1.5 1.5 0 0 1-1.298 2.252h-17.272a1.5 1.5 0 0 1-1.298-2.252l8.636-14.905Zm-25.954 0a1.5 1.5 0 0 1 2.596 0l8.636 14.905a1.5 1.5 0 0 1-1.298 2.252h-17.272a1.5 1.5 0 0 1-1.298-2.252l8.636-14.905Zm-25.955 0a1.5 1.5 0 0 1 2.596 0l8.636 14.905a1.5 1.5 0 0 1-1.298 2.252h-17.272a1.5 1.5 0 0 1-1.298-2.252l8.636-14.905Zm38.932-38.793a1.5 1.5 0 0 1 2.596 0l19.875 34.301a1.5 1.5 0 0 1-1.298 2.252h-39.75a1.5 1.5 0 0 1-1.298-2.252l19.875-34.301Z" fill="#381B00"/><path d="M246.302 146.069v-44.8h19.584c4.864 0 9.13.939 12.8 2.816 3.669 1.877 6.528 4.48 8.576 7.808 2.048 3.328 3.072 7.253 3.072 11.776 0 4.48-1.024 8.405-3.072 11.776-2.048 3.328-4.907 5.931-8.576 7.808-3.67 1.877-7.936 2.816-12.8 2.816h-19.584Zm8.32-7.04h10.88c3.37 0 6.272-.64 8.704-1.92 2.474-1.28 4.373-3.072 5.696-5.376 1.365-2.304 2.048-4.992 2.048-8.064 0-3.115-.683-5.803-2.048-8.064-1.323-2.304-3.222-4.096-5.696-5.376-2.432-1.28-5.334-1.92-8.704-1.92h-10.88v30.72Zm58.443 7.68c-3.499 0-6.848-.491-10.048-1.472-3.2-1.024-5.739-2.325-7.616-3.904l2.88-6.464c1.792 1.408 4.01 2.581 6.656 3.52a24.123 24.123 0 0 0 8.128 1.408c2.346 0 4.245-.256 5.696-.768 1.45-.512 2.517-1.195 3.2-2.048a4.846 4.846 0 0 0 1.024-3.008c0-1.365-.491-2.453-1.472-3.264-.982-.853-2.262-1.515-3.84-1.984-1.536-.512-3.264-.981-5.184-1.408a101.732 101.732 0 0 1-5.696-1.472 27.08 27.08 0 0 1-5.184-2.24 11.622 11.622 0 0 1-3.776-3.712c-.982-1.536-1.472-3.499-1.472-5.888 0-2.432.64-4.651 1.92-6.656 1.322-2.048 3.306-3.669 5.952-4.864 2.688-1.237 6.08-1.856 10.176-1.856 2.688 0 5.354.341 8 1.024 2.645.683 4.949 1.664 6.912 2.944l-2.624 6.464c-2.006-1.195-4.075-2.069-6.208-2.624-2.134-.597-4.182-.896-6.144-.896-2.304 0-4.182.277-5.632.832-1.408.555-2.454 1.28-3.136 2.176-.64.896-.96 1.92-.96 3.072 0 1.365.469 2.475 1.408 3.328.981.811 2.24 1.451 3.776 1.92 1.578.469 3.328.939 5.248 1.408 1.92.427 3.818.917 5.696 1.472 1.92.555 3.648 1.28 5.184 2.176a10.331 10.331 0 0 1 3.776 3.648c.981 1.536 1.472 3.477 1.472 5.824 0 2.389-.662 4.608-1.984 6.656-1.28 2.005-3.264 3.627-5.952 4.864-2.688 1.195-6.08 1.792-10.176 1.792Zm20.026-.64 20.16-44.8h8.192l20.224 44.8h-8.704l-17.344-40.384h3.328l-17.28 40.384h-8.576Zm9.28-10.368 2.24-6.528h24.192l2.24 6.528h-28.672Z" fill="#DE9368"/><path d="m46.593 268.759 4.438-9.8h1.386l4.452 9.8H55.4l-3.962-9.016h.56l-3.962 9.016h-1.442Zm1.89-2.45.378-1.12h5.516l.406 1.12h-6.3Zm13.608 2.45v-9.8h3.822c.859 0 1.591.135 2.198.406.606.27 1.073.662 1.4 1.176.327.513.49 1.124.49 1.834 0 .709-.163 1.32-.49 1.834-.327.504-.793.891-1.4 1.162-.607.27-1.34.406-2.198.406H62.86l.63-.644v3.626h-1.4Zm6.552 0-2.492-3.556h1.498l2.52 3.556h-1.526Zm-5.152-3.486-.63-.686h3.01c.896 0 1.573-.192 2.03-.574.467-.392.7-.938.7-1.638s-.233-1.242-.7-1.624c-.457-.383-1.134-.574-2.03-.574h-3.01l.63-.7v5.796Zm11.698 3.57c-.635 0-1.195-.117-1.68-.35a2.57 2.57 0 0 1-1.12-1.064c-.262-.486-.392-1.092-.392-1.82v-4.27h1.344v4.116c0 .728.172 1.274.518 1.638.354.364.849.546 1.484.546.466 0 .872-.094 1.218-.28.345-.196.611-.476.798-.84.186-.374.28-.822.28-1.344v-3.836h1.344v7.42h-1.274v-2.002l.21.532a2.602 2.602 0 0 1-1.092 1.148 3.312 3.312 0 0 1-1.638.406Zm8.48 0a6.106 6.106 0 0 1-1.764-.252c-.55-.168-.984-.374-1.302-.616l.56-1.064c.318.214.71.396 1.176.546.467.149.943.224 1.428.224.626 0 1.074-.089 1.344-.266.28-.178.42-.425.42-.742a.65.65 0 0 0-.252-.546 1.712 1.712 0 0 0-.672-.294 9.04 9.04 0 0 0-.91-.168 19.896 19.896 0 0 1-1.008-.196 4.5 4.5 0 0 1-.924-.336c-.28-.15-.504-.35-.672-.602-.168-.262-.252-.607-.252-1.036 0-.448.126-.84.378-1.176.252-.336.607-.593 1.064-.77.467-.187 1.018-.28 1.652-.28.486 0 .976.06 1.47.182.504.112.915.275 1.232.49l-.574 1.064a3.171 3.171 0 0 0-1.05-.462 4.842 4.842 0 0 0-1.092-.126c-.588 0-1.026.098-1.316.294-.289.186-.434.429-.434.728 0 .252.084.448.252.588.178.13.402.233.672.308.28.074.588.14.924.196a9.43 9.43 0 0 1 1.008.196 3.7 3.7 0 0 1 .91.322c.28.14.504.336.672.588.178.252.266.588.266 1.008a1.8 1.8 0 0 1-.392 1.162c-.261.326-.63.583-1.106.77-.476.177-1.045.266-1.708.266Zm7.434 0c-.747 0-1.325-.201-1.736-.602-.41-.402-.616-.976-.616-1.722v-6.804h1.344v6.748c0 .401.098.709.294.924.205.214.495.322.868.322.42 0 .77-.117 1.05-.35l.42.966a1.955 1.955 0 0 1-.742.392c-.28.084-.574.126-.882.126Zm-3.612-6.398v-1.106h4.732v1.106h-4.732Zm6.248 3.052v-1.162h3.766v1.162H93.74Zm9.77 3.346c-.635 0-1.209-.14-1.722-.42-.504-.29-.906-.714-1.204-1.274-.29-.56-.434-1.26-.434-2.1 0-.84.149-1.54.448-2.1.308-.56.714-.98 1.218-1.26a3.479 3.479 0 0 1 1.694-.42c.728 0 1.372.158 1.932.476.56.317 1.003.76 1.33 1.33.326.56.49 1.218.49 1.974s-.164 1.418-.49 1.988a3.51 3.51 0 0 1-1.33 1.33c-.56.317-1.204.476-1.932.476Zm-3.934-.084v-10.388h1.344v4.942l-.14 1.722.084 1.722v2.002h-1.288Zm3.822-1.092c.476 0 .9-.108 1.274-.322.382-.215.681-.518.896-.91.224-.402.336-.864.336-1.386 0-.532-.112-.99-.336-1.372a2.275 2.275 0 0 0-.896-.91 2.508 2.508 0 0 0-1.274-.322c-.467 0-.892.107-1.274.322a2.389 2.389 0 0 0-.896.91c-.215.382-.322.84-.322 1.372 0 .522.107.984.322 1.386.224.392.522.695.896.91.382.214.807.322 1.274.322Zm10.258 1.092v-1.568l-.07-.294v-2.674c0-.57-.168-1.008-.504-1.316-.327-.318-.821-.476-1.484-.476a3.8 3.8 0 0 0-1.288.224 3.21 3.21 0 0 0-1.064.574l-.56-1.008c.383-.308.84-.542 1.372-.7a5.68 5.68 0 0 1 1.694-.252c1.017 0 1.801.247 2.352.742.551.494.826 1.25.826 2.268v4.48h-1.274Zm-2.436.084c-.551 0-1.036-.094-1.456-.28a2.254 2.254 0 0 1-.952-.77 1.998 1.998 0 0 1-.336-1.134c0-.402.093-.766.28-1.092.196-.327.509-.588.938-.784.439-.196 1.027-.294 1.764-.294h2.352v.966h-2.296c-.672 0-1.125.112-1.358.336-.233.224-.35.494-.35.812 0 .364.145.658.434.882.289.214.691.322 1.204.322.504 0 .943-.112 1.316-.336.383-.224.658-.551.826-.98l.266.924c-.177.438-.49.788-.938 1.05-.448.252-1.013.378-1.694.378Zm8.325 0a6.106 6.106 0 0 1-1.764-.252c-.55-.168-.984-.374-1.302-.616l.56-1.064c.318.214.71.396 1.176.546.467.149.943.224 1.428.224.626 0 1.074-.089 1.344-.266.28-.178.42-.425.42-.742a.65.65 0 0 0-.252-.546 1.712 1.712 0 0 0-.672-.294 9.002 9.002 0 0 0-.91-.168 19.896 19.896 0 0 1-1.008-.196 4.5 4.5 0 0 1-.924-.336c-.28-.15-.504-.35-.672-.602-.168-.262-.252-.607-.252-1.036 0-.448.126-.84.378-1.176.252-.336.607-.593 1.064-.77.467-.187 1.018-.28 1.652-.28.486 0 .976.06 1.47.182.504.112.915.275 1.232.49l-.574 1.064a3.171 3.171 0 0 0-1.05-.462 4.842 4.842 0 0 0-1.092-.126c-.588 0-1.026.098-1.316.294-.289.186-.434.429-.434.728 0 .252.084.448.252.588.178.13.402.233.672.308.28.074.588.14.924.196a9.43 9.43 0 0 1 1.008.196 3.7 3.7 0 0 1 .91.322c.28.14.504.336.672.588.178.252.266.588.266 1.008a1.8 1.8 0 0 1-.392 1.162c-.261.326-.63.583-1.106.77-.476.177-1.045.266-1.708.266Zm8.19 0c-.793 0-1.493-.164-2.1-.49a3.6 3.6 0 0 1-1.4-1.344c-.327-.57-.49-1.223-.49-1.96 0-.738.159-1.391.476-1.96.327-.57.77-1.013 1.33-1.33.569-.327 1.209-.49 1.918-.49.719 0 1.353.158 1.904.476.551.317.98.765 1.288 1.344.317.569.476 1.236.476 2.002 0 .056-.005.121-.014.196 0 .074-.005.144-.014.21h-6.314v-.966h5.614l-.546.336a2.5 2.5 0 0 0-.294-1.274 2.175 2.175 0 0 0-.854-.868c-.355-.215-.77-.322-1.246-.322-.467 0-.882.107-1.246.322a2.155 2.155 0 0 0-.854.882 2.63 2.63 0 0 0-.308 1.288v.224c0 .494.112.938.336 1.33.233.382.555.681.966.896.411.214.882.322 1.414.322.439 0 .835-.075 1.19-.224.364-.15.681-.374.952-.672l.742.868c-.336.392-.756.69-1.26.896a4.316 4.316 0 0 1-1.666.308Zm8.334 0c-.718 0-1.362-.159-1.932-.476a3.51 3.51 0 0 1-1.33-1.33c-.326-.57-.49-1.232-.49-1.988s.164-1.414.49-1.974c.327-.57.77-1.013 1.33-1.33.57-.318 1.214-.476 1.932-.476.626 0 1.19.14 1.694.42.504.28.906.7 1.204 1.26.308.56.462 1.26.462 2.1 0 .84-.149 1.54-.448 2.1a3.03 3.03 0 0 1-1.19 1.274c-.504.28-1.078.42-1.722.42Zm.112-1.176c.467 0 .887-.108 1.26-.322.383-.215.682-.518.896-.91.224-.402.336-.864.336-1.386 0-.532-.112-.99-.336-1.372a2.262 2.262 0 0 0-.896-.91 2.477 2.477 0 0 0-1.26-.322c-.476 0-.9.107-1.274.322a2.396 2.396 0 0 0-.896.91c-.224.382-.336.84-.336 1.372 0 .522.112.984.336 1.386.224.392.523.695.896.91.374.214.798.322 1.274.322Zm2.534 1.092v-2.002l.084-1.722-.14-1.722v-4.942h1.344v10.388h-1.288Zm12.169.112a5.769 5.769 0 0 1-2.072-.364 5.088 5.088 0 0 1-1.638-1.05 5.087 5.087 0 0 1-1.078-1.596 5.015 5.015 0 0 1-.392-2.002c0-.728.131-1.396.392-2.002a4.789 4.789 0 0 1 1.092-1.582 4.774 4.774 0 0 1 1.638-1.05 5.565 5.565 0 0 1 2.072-.378c.756 0 1.451.13 2.086.392a4.21 4.21 0 0 1 1.638 1.134l-.91.882a3.54 3.54 0 0 0-1.26-.868 3.83 3.83 0 0 0-1.498-.294c-.551 0-1.064.093-1.54.28a3.675 3.675 0 0 0-1.218.784 3.609 3.609 0 0 0-.812 1.204c-.187.457-.28.956-.28 1.498 0 .541.093 1.045.28 1.512.196.457.467.854.812 1.19.345.336.751.597 1.218.784.476.186.989.28 1.54.28a4.01 4.01 0 0 0 1.498-.28 3.637 3.637 0 0 0 1.26-.896l.91.882a4.35 4.35 0 0 1-1.638 1.148 5.473 5.473 0 0 1-2.1.392Zm5.735-.112v-9.8h1.4v8.582h5.306v1.218h-6.706Zm8.313 0v-9.8h1.4v9.8h-1.4Zm10.445.084c-.746 0-1.325-.201-1.736-.602-.41-.402-.616-.976-.616-1.722v-6.804h1.344v6.748c0 .401.098.709.294.924.206.214.495.322.868.322.42 0 .77-.117 1.05-.35l.42.966a1.946 1.946 0 0 1-.742.392c-.28.084-.574.126-.882.126Zm-3.612-6.398v-1.106h4.732v1.106h-4.732Zm9.793 6.398c-.746 0-1.409-.164-1.988-.49a3.657 3.657 0 0 1-1.372-1.344c-.336-.579-.504-1.232-.504-1.96 0-.738.168-1.391.504-1.96a3.542 3.542 0 0 1 1.372-1.33c.579-.327 1.242-.49 1.988-.49.738 0 1.396.163 1.974.49.588.317 1.046.76 1.372 1.33.336.56.504 1.213.504 1.96 0 .737-.168 1.39-.504 1.96a3.518 3.518 0 0 1-1.372 1.344c-.578.326-1.236.49-1.974.49Zm0-1.176c.476 0 .901-.108 1.274-.322.383-.215.682-.518.896-.91.215-.402.322-.864.322-1.386 0-.532-.107-.99-.322-1.372a2.262 2.262 0 0 0-.896-.91 2.505 2.505 0 0 0-1.274-.322c-.476 0-.9.107-1.274.322a2.396 2.396 0 0 0-.896.91c-.224.382-.336.84-.336 1.372 0 .522.112.984.336 1.386.224.392.523.695.896.91.374.214.798.322 1.274.322Zm12.535 1.176c-.719 0-1.363-.159-1.932-.476a3.503 3.503 0 0 1-1.33-1.33c-.327-.57-.49-1.232-.49-1.988s.163-1.414.49-1.974c.326-.57.77-1.013 1.33-1.33.569-.318 1.213-.476 1.932-.476.644 0 1.218.14 1.722.42.504.28.9.7 1.19 1.26.298.56.448 1.26.448 2.1 0 .84-.154 1.54-.462 2.1-.299.56-.7.984-1.204 1.274a3.43 3.43 0 0 1-1.694.42Zm.112-1.176c.466 0 .886-.108 1.26-.322.382-.215.681-.518.896-.91.224-.402.336-.864.336-1.386 0-.532-.112-.99-.336-1.372a2.275 2.275 0 0 0-.896-.91 2.482 2.482 0 0 0-1.26-.322c-.476 0-.901.107-1.274.322a2.389 2.389 0 0 0-.896.91c-.224.382-.336.84-.336 1.372 0 .522.112.984.336 1.386.224.392.522.695.896.91.373.214.798.322 1.274.322Zm2.478 3.808v-4.69l.14-1.722-.084-1.722v-2.002h1.288v10.136h-1.344Zm7.009-2.632c-.635 0-1.195-.117-1.68-.35a2.566 2.566 0 0 1-1.12-1.064c-.262-.486-.392-1.092-.392-1.82v-4.27h1.344v4.116c0 .728.172 1.274.518 1.638.354.364.849.546 1.484.546.466 0 .872-.094 1.218-.28.345-.196.611-.476.798-.84.186-.374.28-.822.28-1.344v-3.836h1.344v7.42h-1.274v-2.002l.21.532a2.605 2.605 0 0 1-1.092 1.148 3.316 3.316 0 0 1-1.638.406Zm6.352-.084v-7.42h1.344v7.42h-1.344Zm.672-8.848a.922.922 0 0 1-.658-.252.839.839 0 0 1-.252-.616c0-.252.084-.462.252-.63a.922.922 0 0 1 .658-.252c.262 0 .476.084.644.252a.77.77 0 0 1 .266.602.903.903 0 0 1-.252.644c-.168.168-.387.252-.658.252Zm6.472 8.932c-.756 0-1.432-.164-2.03-.49a3.624 3.624 0 0 1-1.386-1.344c-.336-.57-.504-1.223-.504-1.96 0-.738.168-1.391.504-1.96a3.512 3.512 0 0 1 1.386-1.33c.598-.327 1.274-.49 2.03-.49.672 0 1.27.135 1.792.406.532.261.943.653 1.232 1.176l-1.022.658a2.206 2.206 0 0 0-.896-.798 2.405 2.405 0 0 0-1.12-.266c-.485 0-.919.107-1.302.322a2.368 2.368 0 0 0-.91.91c-.224.382-.336.84-.336 1.372 0 .532.112.994.336 1.386.224.392.528.695.91.91.383.214.817.322 1.302.322.402 0 .775-.084 1.12-.252a2.32 2.32 0 0 0 .896-.812l1.022.644c-.289.513-.7.91-1.232 1.19-.522.27-1.12.406-1.792.406Zm5.761-1.876.028-1.722 4.27-3.906h1.624l-3.276 3.22-.728.616-1.918 1.792Zm-1.092 1.792v-10.388h1.344v10.388h-1.344Zm5.67 0-2.912-3.612.868-1.078 3.696 4.69h-1.652Zm2.957 0v-10.388h1.344v10.388h-1.344Zm4.232 2.8c-.355 0-.7-.061-1.036-.182a2.365 2.365 0 0 1-.868-.504l.574-1.008c.187.177.392.312.616.406.224.093.462.14.714.14.327 0 .597-.084.812-.252.215-.168.415-.467.602-.896l.462-1.022.14-.168 2.912-6.734h1.316l-3.598 8.162c-.215.522-.457.933-.728 1.232a2.216 2.216 0 0 1-.868.63c-.317.13-.667.196-1.05.196Zm1.764-2.562-3.388-7.658h1.4l2.884 6.608-.896 1.05Zm11.622-.154a6.106 6.106 0 0 1-1.764-.252c-.551-.168-.985-.374-1.302-.616l.56-1.064c.317.214.709.396 1.176.546.467.149.943.224 1.428.224.625 0 1.073-.089 1.344-.266.28-.178.42-.425.42-.742a.65.65 0 0 0-.252-.546 1.712 1.712 0 0 0-.672-.294 9.055 9.055 0 0 0-.91-.168 19.896 19.896 0 0 1-1.008-.196 4.5 4.5 0 0 1-.924-.336c-.28-.15-.504-.35-.672-.602-.168-.262-.252-.607-.252-1.036 0-.448.126-.84.378-1.176.252-.336.607-.593 1.064-.77.467-.187 1.017-.28 1.652-.28.485 0 .975.06 1.47.182.504.112.915.275 1.232.49l-.574 1.064a3.171 3.171 0 0 0-1.05-.462 4.842 4.842 0 0 0-1.092-.126c-.588 0-1.027.098-1.316.294-.289.186-.434.429-.434.728 0 .252.084.448.252.588.177.13.401.233.672.308.28.074.588.14.924.196a9.43 9.43 0 0 1 1.008.196c.336.074.639.182.91.322.28.14.504.336.672.588.177.252.266.588.266 1.008 0 .448-.131.835-.392 1.162-.261.326-.63.583-1.106.77-.476.177-1.045.266-1.708.266Zm8.19 0c-.794 0-1.494-.164-2.1-.49a3.593 3.593 0 0 1-1.4-1.344c-.327-.57-.49-1.223-.49-1.96 0-.738.158-1.391.476-1.96.326-.57.77-1.013 1.33-1.33.569-.327 1.208-.49 1.918-.49.718 0 1.353.158 1.904.476.55.317.98.765 1.288 1.344.317.569.476 1.236.476 2.002 0 .056-.005.121-.014.196 0 .074-.005.144-.014.21h-6.314v-.966h5.614l-.546.336a2.5 2.5 0 0 0-.294-1.274 2.181 2.181 0 0 0-.854-.868c-.355-.215-.77-.322-1.246-.322-.467 0-.882.107-1.246.322a2.155 2.155 0 0 0-.854.882c-.206.373-.308.802-.308 1.288v.224c0 .494.112.938.336 1.33.233.382.555.681.966.896.41.214.882.322 1.414.322.438 0 .835-.075 1.19-.224.364-.15.681-.374.952-.672l.742.868c-.336.392-.756.69-1.26.896a4.316 4.316 0 0 1-1.666.308Zm7.816 0c-.747 0-1.325-.201-1.736-.602-.411-.402-.616-.976-.616-1.722v-6.804h1.344v6.748c0 .401.098.709.294.924.205.214.495.322.868.322.42 0 .77-.117 1.05-.35l.42.966a1.954 1.954 0 0 1-.742.392c-.28.084-.574.126-.882.126Zm-3.612-6.398v-1.106h4.732v1.106h-4.732Zm9.983 6.398c-.635 0-1.195-.117-1.68-.35a2.566 2.566 0 0 1-1.12-1.064c-.262-.486-.392-1.092-.392-1.82v-4.27h1.344v4.116c0 .728.172 1.274.518 1.638.354.364.849.546 1.484.546.466 0 .872-.094 1.218-.28.345-.196.611-.476.798-.84.186-.374.28-.822.28-1.344v-3.836h1.344v7.42h-1.274v-2.002l.21.532a2.605 2.605 0 0 1-1.092 1.148 3.316 3.316 0 0 1-1.638.406Zm10.286 0c-.616 0-1.18-.14-1.694-.42-.504-.29-.91-.714-1.218-1.274-.298-.56-.448-1.26-.448-2.1 0-.84.145-1.54.434-2.1.299-.56.7-.98 1.204-1.26a3.54 3.54 0 0 1 1.722-.42c.728 0 1.372.158 1.932.476.56.317 1.004.76 1.33 1.33.327.56.49 1.218.49 1.974s-.163 1.418-.49 1.988a3.503 3.503 0 0 1-1.33 1.33c-.56.317-1.204.476-1.932.476Zm-3.934 2.632v-10.136h1.288v2.002l-.084 1.722.14 1.722v4.69h-1.344Zm3.822-3.808c.476 0 .901-.108 1.274-.322.383-.215.682-.518.896-.91.224-.402.336-.864.336-1.386 0-.532-.112-.99-.336-1.372a2.262 2.262 0 0 0-.896-.91 2.505 2.505 0 0 0-1.274-.322c-.466 0-.891.107-1.274.322a2.396 2.396 0 0 0-.896.91c-.214.382-.322.84-.322 1.372 0 .522.108.984.322 1.386.224.392.523.695.896.91.383.214.808.322 1.274.322Zm14.087 1.092v-1.568l-.07-.294v-2.674c0-.57-.168-1.008-.504-1.316-.327-.318-.821-.476-1.484-.476a3.8 3.8 0 0 0-1.288.224 3.21 3.21 0 0 0-1.064.574l-.56-1.008c.383-.308.84-.542 1.372-.7a5.68 5.68 0 0 1 1.694-.252c1.017 0 1.801.247 2.352.742.551.494.826 1.25.826 2.268v4.48h-1.274Zm-2.436.084c-.551 0-1.036-.094-1.456-.28a2.254 2.254 0 0 1-.952-.77 1.998 1.998 0 0 1-.336-1.134c0-.402.093-.766.28-1.092.196-.327.509-.588.938-.784.439-.196 1.027-.294 1.764-.294h2.352v.966h-2.296c-.672 0-1.125.112-1.358.336-.233.224-.35.494-.35.812 0 .364.145.658.434.882.289.214.691.322 1.204.322.504 0 .943-.112 1.316-.336.383-.224.658-.551.826-.98l.266.924c-.177.438-.49.788-.938 1.05-.448.252-1.013.378-1.694.378Zm10.153-.084v-9.8h4.13c1.045 0 1.965.205 2.758.616.803.41 1.423.984 1.862 1.722.448.737.672 1.591.672 2.562 0 .97-.224 1.824-.672 2.562a4.498 4.498 0 0 1-1.862 1.722c-.793.41-1.713.616-2.758.616h-4.13Zm1.4-1.218h2.646c.812 0 1.512-.154 2.1-.462a3.372 3.372 0 0 0 1.386-1.288c.327-.56.49-1.204.49-1.932 0-.738-.163-1.382-.49-1.932a3.366 3.366 0 0 0-1.386-1.288c-.588-.308-1.288-.462-2.1-.462h-2.646v7.364Zm13.022 1.33a6.82 6.82 0 0 1-2.142-.336c-.681-.234-1.218-.532-1.61-.896l.518-1.092c.374.326.85.597 1.428.812a5.169 5.169 0 0 0 1.806.322c.57 0 1.032-.066 1.386-.196.355-.131.616-.308.784-.532.168-.234.252-.495.252-.784 0-.336-.112-.607-.336-.812-.214-.206-.499-.369-.854-.49a8.288 8.288 0 0 0-1.148-.336c-.42-.094-.844-.201-1.274-.322a6.24 6.24 0 0 1-1.162-.49 2.43 2.43 0 0 1-.84-.784c-.214-.336-.322-.766-.322-1.288 0-.504.131-.966.392-1.386.271-.43.682-.77 1.232-1.022.56-.262 1.27-.392 2.128-.392.57 0 1.134.074 1.694.224.56.149 1.046.364 1.456.644l-.462 1.12a4.356 4.356 0 0 0-1.33-.602 5.009 5.009 0 0 0-1.358-.196c-.55 0-1.003.07-1.358.21-.354.14-.616.326-.784.56a1.365 1.365 0 0 0-.238.784c0 .345.108.62.322.826.224.205.509.368.854.49.355.121.742.233 1.162.336.42.093.84.2 1.26.322.43.121.817.28 1.162.476.355.196.64.457.854.784.215.326.322.746.322 1.26 0 .494-.135.956-.406 1.386-.27.42-.69.76-1.26 1.022-.56.252-1.269.378-2.128.378Zm4.356-.112 4.438-9.8h1.386l4.452 9.8h-1.47l-3.962-9.016h.56l-3.962 9.016h-1.442Zm1.89-2.45.378-1.12h5.516l.406 1.12h-6.3Zm13.607 2.45v-8.078c0-.728.21-1.307.63-1.736.43-.439 1.036-.658 1.82-.658.29 0 .565.037.826.112.271.065.5.172.686.322l-.406 1.022a1.45 1.45 0 0 0-.476-.252 1.59 1.59 0 0 0-.56-.098c-.392 0-.69.112-.896.336-.205.214-.308.536-.308.966v.994l.028.616v6.454h-1.344Zm-1.26-6.314v-1.106h4.732v1.106h-4.732Zm9.069 6.398c-.747 0-1.41-.164-1.988-.49a3.65 3.65 0 0 1-1.372-1.344c-.336-.579-.504-1.232-.504-1.96 0-.738.168-1.391.504-1.96a3.535 3.535 0 0 1 1.372-1.33c.578-.327 1.241-.49 1.988-.49.737 0 1.395.163 1.974.49.588.317 1.045.76 1.372 1.33.336.56.504 1.213.504 1.96 0 .737-.168 1.39-.504 1.96a3.525 3.525 0 0 1-1.372 1.344c-.579.326-1.237.49-1.974.49Zm0-1.176c.476 0 .9-.108 1.274-.322.382-.215.681-.518.896-.91.214-.402.322-.864.322-1.386 0-.532-.108-.99-.322-1.372a2.275 2.275 0 0 0-.896-.91 2.508 2.508 0 0 0-1.274-.322c-.476 0-.901.107-1.274.322a2.389 2.389 0 0 0-.896.91c-.224.382-.336.84-.336 1.372 0 .522.112.984.336 1.386.224.392.522.695.896.91.373.214.798.322 1.274.322Zm5.708 1.092v-10.388h1.344v10.388h-1.344Zm6.976.084c-.718 0-1.362-.159-1.932-.476a3.51 3.51 0 0 1-1.33-1.33c-.326-.57-.49-1.232-.49-1.988s.164-1.414.49-1.974c.327-.57.77-1.013 1.33-1.33.57-.318 1.214-.476 1.932-.476.626 0 1.19.14 1.694.42.504.28.906.7 1.204 1.26.308.56.462 1.26.462 2.1 0 .84-.149 1.54-.448 2.1a3.03 3.03 0 0 1-1.19 1.274c-.504.28-1.078.42-1.722.42Zm.112-1.176c.467 0 .887-.108 1.26-.322.383-.215.682-.518.896-.91.224-.402.336-.864.336-1.386 0-.532-.112-.99-.336-1.372a2.262 2.262 0 0 0-.896-.91 2.477 2.477 0 0 0-1.26-.322c-.476 0-.9.107-1.274.322a2.396 2.396 0 0 0-.896.91c-.224.382-.336.84-.336 1.372 0 .522.112.984.336 1.386.224.392.523.695.896.91.374.214.798.322 1.274.322Zm2.534 1.092v-2.002l.084-1.722-.14-1.722v-4.942h1.344v10.388h-1.288Zm7.135.084c-.793 0-1.493-.164-2.1-.49a3.6 3.6 0 0 1-1.4-1.344c-.326-.57-.49-1.223-.49-1.96 0-.738.159-1.391.476-1.96.327-.57.77-1.013 1.33-1.33a3.784 3.784 0 0 1 1.918-.49c.719 0 1.354.158 1.904.476.551.317.98.765 1.288 1.344.318.569.476 1.236.476 2.002 0 .056-.004.121-.014.196 0 .074-.004.144-.014.21h-6.314v-.966h5.614l-.546.336a2.48 2.48 0 0 0-.294-1.274 2.175 2.175 0 0 0-.854-.868c-.354-.215-.77-.322-1.246-.322-.466 0-.882.107-1.246.322a2.161 2.161 0 0 0-.854.882 2.63 2.63 0 0 0-.308 1.288v.224c0 .494.112.938.336 1.33.234.382.556.681.966.896.411.214.882.322 1.414.322.439 0 .836-.075 1.19-.224.364-.15.682-.374.952-.672l.742.868c-.336.392-.756.69-1.26.896a4.312 4.312 0 0 1-1.666.308Zm5.269-.084v-7.42h1.288v2.016l-.126-.504a2.27 2.27 0 0 1 1.036-1.176c.485-.271 1.082-.406 1.792-.406v1.302a.952.952 0 0 0-.168-.014h-.14c-.719 0-1.288.214-1.708.644-.42.429-.63 1.05-.63 1.862v3.696h-1.344Z" fill="#000"/></svg>